<svg width="76" height="75" viewBox="0 0 76 75" fill="none" xmlns="http://www.w3.org/2000/svg">
<path fill-rule="evenodd" clip-rule="evenodd" d="M54.8299 25.29L54.6299 41.75C54.6299 42.96 54.6699 45.64 53.8499 46.51C53.0099 47.38 51.8899 47.86 50.7199 47.86H41.5399C41.2999 47.86 41.0799 47.95 40.8999 48.11L32.9799 54C32.7199 54.27 32.3399 54.34 32.0099 54.21C31.6799 54.08 31.4599 53.73 31.4599 53.36L31.5199 48.73C31.5199 47.86 30.6399 47.81 30.6399 47.81L25.5599 47.85C24.3899 47.85 23.2699 47.37 22.4299 46.5C21.6199 45.63 21.1499 44.46 21.1499 43.25V25.31C21.1499 24.1 21.6099 22.91 22.4299 22.06C23.2499 21.21 24.3899 20.71 25.5599 20.71H50.5899C51.7599 20.71 52.8399 21.21 53.6699 22.08C54.4999 22.95 54.8199 24.06 54.8199 25.28L54.8299 25.29Z" fill="#B8EBDA"/>
<path d="M45.6801 29.98H30.6201C30.0568 29.98 29.6001 30.4367 29.6001 31V32.19C29.6001 32.7533 30.0568 33.21 30.6201 33.21H45.6801C46.2434 33.21 46.7001 32.7533 46.7001 32.19V31C46.7001 30.4367 46.2434 29.98 45.6801 29.98Z" fill="#4ECCA3"/>
<path d="M39.4001 36.44H30.6201C30.0568 36.44 29.6001 36.8967 29.6001 37.46V38.65C29.6001 39.2133 30.0568 39.67 30.6201 39.67H39.4001C39.9634 39.67 40.4201 39.2133 40.4201 38.65V37.46C40.4201 36.8967 39.9634 36.44 39.4001 36.44Z" fill="#4ECCA3"/>
</svg>
