<svg width="76" height="75" viewBox="0 0 76 75" fill="none" xmlns="http://www.w3.org/2000/svg">
<path d="M70.75 65.04L64.34 71.45C63.98 71.81 63.39 71.81 63.02 71.45L42.75 51.18L50.47 43.46L70.74 63.73C71.1 64.09 71.1 64.68 70.74 65.05L70.75 65.04Z" fill="white"/>
<path d="M31.98 57.29C17.09 57.29 4.97998 45.18 4.97998 30.29C4.97998 15.4 17.09 3.28003 31.98 3.28003C46.87 3.28003 58.98 15.39 58.98 30.28C58.98 45.17 46.87 57.28 31.98 57.28V57.29ZM31.98 12.66C22.26 12.66 14.35 20.57 14.35 30.29C14.35 40.01 22.26 47.92 31.98 47.92C41.7 47.92 49.61 40.01 49.61 30.29C49.61 20.57 41.7 12.66 31.98 12.66Z" fill="#94B0A9"/>
</svg>
