<svg width="76" height="75" viewBox="0 0 76 75" fill="none" xmlns="http://www.w3.org/2000/svg">
<path d="M42.6992 51.0049L50.3218 43.3823L70.3329 63.3934C70.6936 63.754 70.6936 64.348 70.3329 64.7086L64.0256 71.016C63.6649 71.3766 63.071 71.3766 62.7103 71.016L42.6992 51.0049Z" fill="#077765"/>
<path d="M32.0599 57.04C17.3599 57.04 5.3999 45.08 5.3999 30.38C5.3999 15.68 17.3599 3.70996 32.0599 3.70996C46.7599 3.70996 58.7199 15.67 58.7199 30.37C58.7199 45.07 46.7599 57.03 32.0599 57.03V57.04ZM32.0599 12.97C22.4599 12.97 14.6499 20.78 14.6499 30.37C14.6499 39.96 22.4599 47.78 32.0599 47.78C41.6599 47.78 49.4599 39.97 49.4599 30.37C49.4599 20.77 41.6499 12.97 32.0599 12.97Z" fill="#9CC9C1"/>
</svg>
