<svg width="76" height="75" viewBox="0 0 76 75" fill="none" xmlns="http://www.w3.org/2000/svg">
<path d="M72.6901 35.1799L66.6201 30.0199V9.35994H53.6101V18.9799L39.0401 6.61994C37.6801 5.46994 35.6701 5.48994 34.3301 6.66994L3.2601 34.3799C1.7701 35.6899 1.6501 37.9499 2.9601 39.4299C4.2701 40.9199 6.5301 41.0599 8.0101 39.7299L9.8701 38.0599V62.6999C9.8701 66.2999 12.7701 69.2199 16.3701 69.2199H59.8201C63.4201 69.2199 66.3201 66.2999 66.3201 62.6999V39.1899L68.0401 40.6399C68.7001 41.2099 69.5301 41.4799 70.3501 41.4799C71.3701 41.4799 72.3701 41.0499 73.0901 40.2299C74.3601 38.7299 74.1801 36.4499 72.6801 35.1799H72.6901ZM46.1201 47.5799C46.1201 49.7299 44.3801 51.4499 42.2501 51.4499H33.5601C31.4301 51.4499 29.6901 49.7299 29.6901 47.5799V39.5199C29.6901 37.3899 31.4301 35.6699 33.5601 35.6699H42.2501C44.3801 35.6699 46.1201 37.3899 46.1201 39.5199V47.5799Z" fill="white"/>
</svg>
