<svg width="76" height="75" viewBox="0 0 76 75" fill="none" xmlns="http://www.w3.org/2000/svg">
<path d="M38.0001 9.06005C19.0201 9.06005 3.64014 20.68 3.64014 35.03C3.64014 41.01 6.33014 46.4801 10.8301 50.9001C10.9001 51.0601 10.9801 51.21 11.0401 51.37C11.5301 52.85 11.6001 54.4301 11.2601 55.9501C10.8601 57.7601 10.0201 59.44 8.82014 60.84C7.41014 62.48 5.63014 63.76 3.64014 64.6C5.95014 65.58 8.44014 66.0301 10.9501 65.9101C13.7901 65.7801 16.5801 65.04 19.1101 63.73C21.4001 62.54 23.4701 60.9601 25.2201 59.0601C29.3701 60.3101 33.6801 60.93 38.0101 60.92C56.9901 60.92 72.3701 49.31 72.3701 34.96C72.3701 20.61 56.9801 9.05005 38.0101 9.05005L38.0001 9.06005Z" fill="white"/>
</svg>
