<svg width="76" height="75" viewBox="0 0 76 75" fill="none" xmlns="http://www.w3.org/2000/svg">
<path fill-rule="evenodd" clip-rule="evenodd" d="M72.72 26.75V49.55C72.72 51.54 71.93 53.49 70.51 54.91C69.09 56.33 67.17 57.15 65.15 57.15H62.63V64.75C62.63 65.76 62 66.67 61.05 67.08C60.14 67.46 59.03 67.24 58.31 66.51L48.94 57.14H29.8C27.78 57.14 25.86 56.32 24.44 54.9C23.02 53.48 22.3 51.72 22.23 49.82L26.3 45.72H44.94C47.3 45.72 49.54 44.77 51.18 43.13C52.85 41.46 53.8 39.19 53.8 36.86V19.14H65.15C67.17 19.14 69.09 19.93 70.51 21.35C71.93 22.77 72.72 24.72 72.72 26.74V26.75Z" fill="#077765"/>
<path fill-rule="evenodd" clip-rule="evenodd" d="M51.2398 14.07V36.87C51.2398 38.54 50.5798 40.15 49.4098 41.35C48.2098 42.55 46.5998 43.21 44.9298 43.21H25.7898C25.4398 43.21 25.1298 43.34 24.8798 43.56L15.5498 52.96C15.1698 53.34 14.6398 53.43 14.1598 53.24C13.6798 53.05 13.3698 52.58 13.3698 52.07V44.47C13.3698 43.27 12.1098 43.21 12.1098 43.21H9.58979C7.91979 43.21 6.30979 42.55 5.10979 41.35C3.93979 40.15 3.27979 38.54 3.27979 36.87V14.07C3.27979 12.4 3.93979 10.76 5.10979 9.58998C6.27979 8.41998 7.91979 7.72998 9.58979 7.72998H44.9398C46.6098 7.72998 48.2198 8.38998 49.4198 9.58998C50.6198 10.79 51.2498 12.4 51.2498 14.07H51.2398Z" fill="#9CC9C1"/>
</svg>
