<svg width="76" height="75" viewBox="0 0 76 75" fill="none" xmlns="http://www.w3.org/2000/svg">
<path fill-rule="evenodd" clip-rule="evenodd" d="M54.1598 46.43C54.0798 46.65 54.0098 46.87 53.9398 47.09C53.5598 48.33 53.3598 49.54 53.3598 49.54C53.3598 49.56 53.3598 49.59 53.3598 49.61C53.2398 50.77 52.9698 51.6 52.6598 52.17C52.2298 53 51.3498 53.48 50.4098 53.5C34.8798 53.78 27.2098 42.26 24.2298 36.11C23.0798 33.74 22.2798 31.2 21.9198 28.59C21.6698 26.82 21.6998 25.6 21.8398 24.77C22.0098 23.8 22.7498 23.03 23.6998 22.78L26.6098 22.03H26.6398L27.6598 21.76C28.1498 21.63 28.6498 21.55 29.1498 21.51C29.3898 21.48 29.6398 21.47 29.8898 21.47H30.2598C30.9598 21.47 31.5898 21.89 31.8498 22.53L34.7298 29.42C35.1198 30.36 34.8198 31.44 33.9998 32.04L33.3198 32.54L31.7598 33.69C31.4998 33.88 31.3498 34.17 31.3198 34.48C31.2998 34.67 31.3198 34.87 31.4098 35.05C34.0198 41 38.5398 43.55 40.3798 44.3C40.6098 44.39 40.8398 44.4 41.0698 44.34C41.2898 44.28 41.4898 44.14 41.6298 43.94L42.5898 42.59C42.6598 42.49 42.7198 42.39 42.7798 42.3C43.1198 41.8 43.4498 41.42 43.7598 41.13C44.5198 40.41 45.6698 40.28 46.5998 40.76C48.1498 41.56 51.1398 42.6 51.1398 42.6C55.1898 43.86 54.1598 46.42 54.1598 46.42V46.43Z" fill="#4ECCA3"/>
<path fill-rule="evenodd" clip-rule="evenodd" d="M33.3199 32.56L31.7599 33.71C31.4999 33.9 31.3499 34.19 31.3199 34.5L26.6099 22.04H26.6399L29.1499 21.53L33.3199 32.57V32.56Z" fill="#B8EBDA"/>
<path fill-rule="evenodd" clip-rule="evenodd" d="M53.9398 47.1001L42.7798 42.3101C42.7198 42.4001 42.6498 42.5001 42.5898 42.6001L41.6298 43.9501C41.4898 44.1501 41.2898 44.2801 41.0698 44.3501L53.3498 49.6101L53.9398 47.0901V47.1001Z" fill="#B8EBDA"/>
</svg>
