<svg width="76" height="75" viewBox="0 0 76 75" fill="none" xmlns="http://www.w3.org/2000/svg">
<path d="M67.5498 20.3101H8.46978C8.07978 20.3101 7.77979 20.6201 7.77979 21.0001V60.9201C7.77979 64.3301 10.5498 67.1001 13.9798 67.1001H62.0498C65.4798 67.1001 68.2298 64.3301 68.2298 60.9201V21.0001C68.2298 20.6101 67.9398 20.3101 67.5598 20.3101H67.5498ZM52.7798 35.8101C52.7798 37.5201 51.3898 38.9101 49.6798 38.9101H27.2998C25.5898 38.9101 24.1998 37.5201 24.1998 35.8101V31.9201C24.1998 30.2101 25.5898 28.8201 27.2998 28.8201H49.6798C51.3898 28.8201 52.7798 30.2101 52.7798 31.9201V35.8101Z" fill="#9BC8C0"/>
<path d="M70.5799 7.90002H5.4199C4.30429 7.90002 3.3999 8.80441 3.3999 9.92002V18.29C3.3999 19.4056 4.30429 20.31 5.4199 20.31H70.5799C71.6955 20.31 72.5999 19.4056 72.5999 18.29V9.92002C72.5999 8.80441 71.6955 7.90002 70.5799 7.90002Z" fill="#157F6E"/>
</svg>
