<svg width="76" height="75" viewBox="0 0 76 75" fill="none" xmlns="http://www.w3.org/2000/svg">
<path d="M67.13 20.55H8.88996C8.50996 20.55 8.20996 20.85 8.20996 21.23V60.5801C8.20996 63.9401 10.94 66.67 14.32 66.67H61.7C65.08 66.67 67.79 63.9401 67.79 60.5801V21.24C67.79 20.86 67.51 20.56 67.13 20.56V20.55ZM52.57 35.8301C52.57 37.5201 51.2 38.89 49.51 38.89H27.45C25.76 38.89 24.39 37.5201 24.39 35.8301V32C24.39 30.31 25.76 28.9401 27.45 28.9401H49.51C51.2 28.9401 52.57 30.31 52.57 32V35.8301Z" fill="#94B1AA"/>
<path d="M70.0801 8.31995H5.91014C4.79452 8.31995 3.89014 9.22433 3.89014 10.3399V18.5299C3.89014 19.6456 4.79452 20.5499 5.91014 20.5499H70.0801C71.1958 20.5499 72.1001 19.6456 72.1001 18.5299V10.3399C72.1001 9.22433 71.1958 8.31995 70.0801 8.31995Z" fill="white"/>
</svg>
