<svg width="76" height="75" viewBox="0 0 76 75" fill="none" xmlns="http://www.w3.org/2000/svg">
<path d="M1.70996 51.43V66.53C1.70996 67.68 2.63996 68.61 3.78996 68.61H72.2C73.35 68.61 74.28 67.68 74.28 66.53V51.43C74.28 50.28 73.35 49.35 72.2 49.35H3.79996C2.64996 49.35 1.71996 50.28 1.71996 51.43H1.70996ZM61.4 61.96C59.43 61.96 57.86 60.61 57.86 58.99C57.86 57.37 59.43 55.99 61.4 55.99C63.37 55.99 64.94 57.34 64.94 58.99C64.94 60.64 63.37 61.96 61.4 61.96Z" fill="#779B92"/>
<path d="M59.4101 32.85L42.6601 53.29C40.7501 55.62 37.2501 55.74 35.1601 53.53L15.9901 33.12C14.5701 31.61 14.6601 29.22 16.1701 27.8C17.7101 26.38 20.8901 26.47 22.3101 28.01L33.5301 39.92V10.5C33.5301 8.23001 35.3801 6.39001 37.6401 6.39001C39.9001 6.39001 41.7501 8.23001 41.7501 10.5V39.98L52.6101 27.91C53.9401 26.31 57.3601 26.16 58.9601 27.52C60.5601 28.85 60.7401 31.24 59.4101 32.84V32.85Z" fill="#B7CAC5"/>
</svg>
