<svg width="76" height="75" viewBox="0 0 76 75" fill="none" xmlns="http://www.w3.org/2000/svg">
<path d="M37.9999 44.3899C44.5499 44.3899 49.8499 39.0899 49.8499 32.5399C49.8499 25.9899 44.5499 20.6899 37.9999 20.6899C31.4499 20.6899 26.1499 25.9899 26.1499 32.5399C26.1499 39.0899 31.4499 44.3899 37.9999 44.3899Z" fill="white"/>
<path d="M37.7498 47.42C26.1098 47.42 17.8398 51.98 17.8398 64.23V65.99H59.3998V64.23C59.3998 51.97 49.3898 47.42 37.7498 47.42Z" fill="white"/>
<path d="M58.8204 26.22C63.5756 26.22 67.4305 22.3652 67.4305 17.61C67.4305 12.8548 63.5756 9 58.8204 9C54.0653 9 50.2104 12.8548 50.2104 17.61C50.2104 22.3652 54.0653 26.22 58.8204 26.22Z" fill="#94B0A9"/>
<path d="M16.7702 26.22C21.5253 26.22 25.3802 22.3652 25.3802 17.61C25.3802 12.8548 21.5253 9 16.7702 9C12.015 9 8.16016 12.8548 8.16016 17.61C8.16016 22.3652 12.015 26.22 16.7702 26.22Z" fill="#94B0A9"/>
<path d="M60.47 29.6C50.78 29.56 55.72 34.1 49.96 40.92C49.76 41.16 49.96 42.19 49.96 42.19H72.76V40.92C69.83 32.02 68.6 29.64 60.46 29.6H60.47Z" fill="#94B0A9"/>
<path d="M3.23021 40.92V42.19H26.0302C26.0302 42.19 26.2302 41.16 26.0302 40.92C20.2702 34.1 25.2202 29.56 15.5202 29.6C7.39021 29.64 6.15021 32.02 3.22021 40.92H3.23021Z" fill="#94B0A9"/>
</svg>
