<svg width="76" height="75" viewBox="0 0 76 75" fill="none" xmlns="http://www.w3.org/2000/svg">
<path d="M42.0798 55.2C42.0798 60.06 42.0798 64.92 42.0798 69.77C42.0798 70.83 42.0298 70.88 40.9898 70.88C37.7298 70.88 34.4698 70.88 31.1998 70.88C29.9798 70.88 29.9498 70.85 29.9498 69.65C29.9498 60.19 29.9498 50.73 29.9498 41.26C29.9498 39.34 30.1498 39.66 28.3298 39.64C26.4098 39.62 24.4898 39.62 22.5698 39.64C21.9398 39.64 21.6998 39.4 21.7098 38.78C21.7298 35.56 21.7098 32.35 21.7098 29.13C21.7098 28.33 21.8598 28.18 22.7098 28.18C24.8398 28.18 26.9698 28.15 29.0898 28.18C29.7698 28.19 29.9598 27.95 29.9498 27.3C29.9198 24.43 29.9198 21.56 29.9498 18.69C29.9798 15.08 30.9698 11.8 33.3898 9.04001C35.5398 6.60001 38.3098 5.22001 41.4398 4.58001C45.4298 3.77001 49.4498 4.10001 53.4598 4.48001C54.0298 4.53001 54.1998 4.79001 54.1898 5.33001C54.1198 8.38001 54.0598 11.43 54.0198 14.49C54.0198 15.2 53.5598 15.24 53.0398 15.24C50.9098 15.22 48.7798 15.19 46.6598 15.21C45.9998 15.21 45.3198 15.31 44.6698 15.46C43.2298 15.79 42.4298 16.68 42.2398 18.14C42.1398 18.89 42.0898 19.66 42.0798 20.42C42.0598 22.71 42.0998 25 42.0598 27.29C42.0498 28.01 42.2898 28.19 42.9798 28.18C46.3598 28.15 49.7398 28.17 53.1098 28.17C54.2298 28.17 54.3298 28.28 54.2798 29.42C54.1398 32.38 53.9998 35.33 53.8598 38.29C53.8598 38.43 53.8298 38.57 53.8298 38.7C53.8298 39.39 53.5198 39.65 52.7998 39.64C50.5298 39.6 48.2698 39.62 45.9998 39.62C44.9798 39.62 43.9598 39.66 42.9498 39.61C42.2898 39.58 42.0698 39.78 42.0798 40.46C42.1098 43.35 42.0898 46.24 42.0898 49.14C42.0898 51.15 42.0898 53.17 42.0898 55.18L42.0798 55.2Z" fill="#6E7075"/>
</svg>
