<svg width="76" height="75" viewBox="0 0 76 75" fill="none" xmlns="http://www.w3.org/2000/svg">
<path d="M38.8101 4.09L46.6601 28.24C46.7701 28.59 47.1001 28.83 47.4701 28.83H72.8601C73.6801 28.83 74.0201 29.88 73.3601 30.36L52.8201 45.29C52.5201 45.51 52.4001 45.89 52.5101 46.24L60.3601 70.39C60.6101 71.17 59.7201 71.82 59.0601 71.34L38.5201 56.41C38.2201 56.19 37.8201 56.19 37.5201 56.41L16.9801 71.34C16.3201 71.82 15.4201 71.17 15.6801 70.39L23.5301 46.24C23.6401 45.89 23.5201 45.51 23.2201 45.29L2.65007 30.36C1.99007 29.88 2.33007 28.83 3.15007 28.83H28.5401C28.9101 28.83 29.2301 28.59 29.3501 28.24L37.2001 4.09C37.4501 3.31 38.5601 3.31 38.8101 4.09Z" fill="white"/>
</svg>
