<svg width="76" height="75" viewBox="0 0 76 75" fill="none" xmlns="http://www.w3.org/2000/svg">
<path d="M72.1898 15.33C71.6398 14.28 70.5298 13.67 69.3598 13.67H27.9398C26.7598 13.67 25.6098 14.25 25.0498 15.29C24.4898 16.33 24.4598 17.6 25.0898 18.59C25.1498 18.65 25.1498 18.71 25.2098 18.77L39.1398 37.13C39.6398 37.79 39.9098 38.59 39.9098 39.42V48.86C39.9098 49.72 40.3398 50.52 41.0798 50.95L51.8898 57.31C52.2598 57.56 52.7498 57.68 53.1798 57.68C53.6098 57.68 54.0098 57.55 54.3998 57.35C55.1798 56.95 55.6398 56.11 55.6398 55.24V39.41C55.6398 38.6 55.9098 37.8 56.3998 37.15L71.9598 18.78C72.0198 18.72 72.0198 18.66 72.0798 18.6C72.6898 17.62 72.7598 16.39 72.1998 15.34L72.1898 15.33Z" fill="#077765"/>
<path d="M37.7801 38.38C38.2901 38.97 38.3701 39.82 37.9801 40.49L35.9101 44.05C35.4201 44.7 35.1501 45.48 35.1501 46.3V58.93C35.1501 59.79 34.7001 60.61 33.9301 61C33.5401 61.2 33.1501 61.33 32.7101 61.33C32.2701 61.33 31.7901 61.22 31.4101 60.96L22.2201 56.23C21.4901 55.81 21.0501 55 21.0501 54.14V46.33C21.0501 45.5 20.7901 44.69 20.2901 44.04L4.56013 25.95C4.50013 25.9 4.50013 25.84 4.43013 25.77C3.82013 24.77 3.05013 22.8 3.62013 21.75C4.19013 20.7 5.35013 20.12 6.54013 20.12H22.6701C23.4101 20.12 24.1201 20.44 24.6101 21L37.7801 38.36V38.38Z" fill="#94B0A9"/>
</svg>
