<svg width="76" height="75" viewBox="0 0 76 75" fill="none" xmlns="http://www.w3.org/2000/svg">
<path d="M55.4098 7.03003H20.5898C13.3898 7.03003 7.52979 12.89 7.52979 20.09V54.91C7.52979 62.11 13.3898 67.97 20.5898 67.97H55.4098C62.6098 67.97 68.4698 62.11 68.4698 54.91V20.09C68.4698 12.89 62.6098 7.03003 55.4098 7.03003ZM65.5698 54.91C65.5698 60.51 61.0098 65.07 55.4098 65.07H20.5898C14.9898 65.07 10.4298 60.51 10.4298 54.91V20.09C10.4298 14.49 14.9898 9.93003 20.5898 9.93003H55.4098C61.0098 9.93003 65.5698 14.49 65.5698 20.09V54.91Z" fill="#6E7075"/>
<path d="M38 21.54C29.19 21.54 22.04 28.69 22.04 37.5C22.04 46.31 29.19 53.46 38 53.46C46.81 53.46 53.96 46.31 53.96 37.5C53.96 28.69 46.81 21.54 38 21.54ZM38 50.56C30.8 50.56 24.94 44.7 24.94 37.5C24.94 30.3 30.8 24.44 38 24.44C45.2 24.44 51.06 30.3 51.06 37.5C51.06 44.7 45.2 50.56 38 50.56Z" fill="#6E7075"/>
<path d="M56.8598 22.99C59.2622 22.99 61.2098 21.0425 61.2098 18.64C61.2098 16.2376 59.2622 14.29 56.8598 14.29C54.4573 14.29 52.5098 16.2376 52.5098 18.64C52.5098 21.0425 54.4573 22.99 56.8598 22.99Z" fill="#6E7075"/>
</svg>
