<svg width="76" height="75" viewBox="0 0 76 75" fill="none" xmlns="http://www.w3.org/2000/svg">
<path d="M52.5199 45.15C52.2299 45.35 52.1099 45.72 52.2099 46.07L59.9399 69.8C60.1699 70.55 59.3099 71.18 58.6799 70.72L38.4899 56.04C38.3799 55.95 38.2599 55.9 38.1099 55.9V4.14001C38.3999 4.18001 38.6699 4.36001 38.7699 4.70001L46.4899 28.43C46.5999 28.77 46.8999 29 47.2599 29H72.2099C72.9999 29 73.3199 30.01 72.6999 30.47L52.5099 45.15H52.5199Z" fill="#9CC9C1"/>
<path d="M38.11 4.13999V55.9C37.91 55.86 37.7 55.92 37.52 56.04L17.33 70.72C16.7 71.19 15.84 70.56 16.07 69.8L23.8 46.07C23.91 45.73 23.78 45.35 23.49 45.15L3.29005 30.47C2.66005 30 2.98005 29 3.78005 29H28.73C29.09 29 29.39 28.77 29.5 28.43L37.22 4.69999C37.35 4.28999 37.74 4.08999 38.1 4.13999H38.11Z" fill="#077765"/>
</svg>
