<svg width="76" height="75" viewBox="0 0 76 75" fill="none" xmlns="http://www.w3.org/2000/svg">
<path d="M26.06 33.98L4.20004 55.84C3.59004 56.45 3.22004 57.31 3.22004 58.17V69.01C3.16004 70.79 4.63004 72.26 6.40004 72.32H17.3C19.08 72.32 20.55 70.85 20.55 69.07V63.62H26C27.84 63.62 29.25 62.15 29.25 60.37V54.92H34.7C35.56 54.92 36.41 54.55 37.03 53.94L41.5 49.47C34.52 46.59 28.95 40.96 26.07 33.98H26.06Z" fill="#94B1AA"/>
<path d="M48.9002 2.68004C35.7302 2.68004 24.9502 13.4 24.9502 26.56V26.68C24.9502 29.07 25.3202 31.58 25.9902 33.85C25.9902 33.85 26.0502 33.91 26.0502 33.97C28.9302 40.95 34.5002 46.59 41.4802 49.46L41.5402 49.4C43.8702 50.2 46.3202 50.56 48.8302 50.56C62.0602 50.56 72.7802 39.9 72.7802 26.68C72.8402 13.45 62.1202 2.73004 48.9002 2.67004V2.68004ZM54.2902 26.63C51.2902 26.63 48.8402 24.24 48.8402 21.24V21.18C48.8402 18.18 51.2902 15.79 54.2902 15.79C57.2902 15.79 59.7402 18.18 59.7402 21.24C59.7402 24.3 57.2902 26.63 54.2902 26.63Z" fill="white"/>
</svg>
