<svg width="76" height="75" viewBox="0 0 76 75" fill="none" xmlns="http://www.w3.org/2000/svg">
<path d="M61.5101 61.02H51.6101V45.52C51.6101 41.82 51.5401 37.07 46.4601 37.07C41.3801 37.07 40.5201 41.1 40.5201 45.26V61.02H30.6301V29.15H40.1301V33.5H40.2601C42.2001 30.19 45.8001 28.21 49.6301 28.35C59.6601 28.35 61.5101 34.95 61.5101 43.53V61.02ZM19.4701 24.79C16.3001 24.79 13.7301 22.22 13.7301 19.05C13.7301 15.88 16.3001 13.31 19.4701 13.31C22.6401 13.31 25.2101 15.88 25.2101 19.05C25.2101 22.22 22.6401 24.79 19.4701 24.79ZM24.4201 61.02H14.5101V29.15H24.4201V61.02ZM66.4501 4.11004H9.5301C6.8401 4.08004 4.6401 6.24004 4.6001 8.93004V66.08C4.6301 68.77 6.8401 70.93 9.5301 70.9H66.4401C69.1401 70.93 71.3501 68.78 71.3901 66.08V8.92004C71.3501 6.22004 69.1401 4.07004 66.4401 4.10004" fill="#6E7075"/>
</svg>
