<svg width="76" height="75" viewBox="0 0 76 75" fill="none" xmlns="http://www.w3.org/2000/svg">
<path d="M17.6202 8.95996H4.57021C4.23884 8.95996 3.97021 9.22859 3.97021 9.55996V22.61C3.97021 22.9413 4.23884 23.21 4.57021 23.21H17.6202C17.9516 23.21 18.2202 22.9413 18.2202 22.61V9.55996C18.2202 9.22859 17.9516 8.95996 17.6202 8.95996Z" fill="#B7CAC5"/>
<path d="M68.45 19.67H27.33C25.35 19.67 23.75 18.07 23.75 16.09C23.75 14.11 25.35 12.51 27.33 12.51H68.45C70.43 12.51 72.03 14.11 72.03 16.09C72.03 18.07 70.43 19.67 68.45 19.67Z" fill="#779B92"/>
<path d="M17.6202 28.9301H4.57021C4.23884 28.9301 3.97021 29.1987 3.97021 29.5301V42.5801C3.97021 42.9114 4.23884 43.1801 4.57021 43.1801H17.6202C17.9516 43.1801 18.2202 42.9114 18.2202 42.5801V29.5301C18.2202 29.1987 17.9516 28.9301 17.6202 28.9301Z" fill="#B7CAC5"/>
<path d="M68.45 39.6401H27.33C25.35 39.6401 23.75 38.0401 23.75 36.0601C23.75 34.0801 25.35 32.4801 27.33 32.4801H68.45C70.43 32.4801 72.03 34.0801 72.03 36.0601C72.03 38.0401 70.43 39.6401 68.45 39.6401Z" fill="#779B92"/>
<path d="M17.6202 48.89H4.57021C4.23884 48.89 3.97021 49.1586 3.97021 49.49V62.54C3.97021 62.8714 4.23884 63.14 4.57021 63.14H17.6202C17.9516 63.14 18.2202 62.8714 18.2202 62.54V49.49C18.2202 49.1586 17.9516 48.89 17.6202 48.89Z" fill="#B7CAC5"/>
<path d="M68.45 59.6001H27.33C25.35 59.6001 23.75 58.0001 23.75 56.0201C23.75 54.0401 25.35 52.4401 27.33 52.4401H68.45C70.43 52.4401 72.03 54.0401 72.03 56.0201C72.03 58.0001 70.43 59.6001 68.45 59.6001Z" fill="#779B92"/>
</svg>
