<svg width="76" height="75" viewBox="0 0 76 75" fill="none" xmlns="http://www.w3.org/2000/svg">
<path d="M37.4598 33.0799L29.5998 40.8599C28.4998 41.9499 27.0098 42.5699 25.4598 42.5699H22.6898C21.3998 42.5699 20.1598 43.1199 19.2898 44.0799L6.25983 58.4699C4.82983 60.0499 5.01983 62.5099 6.67983 63.8499L13.6398 69.4599C15.1398 70.6699 17.3198 70.5299 18.6498 69.1399L32.1498 55.0099C33.3098 53.7999 33.7898 52.0799 33.4198 50.4399L33.1498 49.2299C32.9198 48.2199 33.2398 47.1699 33.9898 46.4599L42.7398 38.2199L37.4498 33.0699L37.4598 33.0799Z" fill="#94B1AA"/>
<path d="M69.7798 35.32L52.8198 50.88C51.6498 51.94 49.8598 51.87 48.7798 50.71L44.8298 46.39C43.7698 45.22 43.8398 43.43 44.9998 42.38L45.7298 41.71L32.3098 28.63L31.5798 29.3C30.4398 30.38 28.6198 30.29 27.5698 29.13L23.8098 25.05C22.7498 23.88 22.8398 22.09 23.9798 21.01L40.9598 5.46998C42.0998 4.38998 43.9198 4.47999 44.9698 5.63999L48.7298 9.71999C49.7898 10.89 49.6998 12.68 48.5398 13.73L47.3098 14.85L60.3698 28.27L61.9698 26.8C63.1398 25.72 64.9498 25.81 66.0098 26.97L69.9598 31.29C71.0198 32.43 70.9498 34.25 69.7898 35.3L69.7798 35.32Z" fill="white"/>
</svg>
