<svg width="76" height="75" viewBox="0 0 76 75" fill="none" xmlns="http://www.w3.org/2000/svg">
<path fill-rule="evenodd" clip-rule="evenodd" d="M55.8202 10.37C45.9602 0.57002 30.0402 0.57002 20.1802 10.37C15.9302 14.55 13.5902 20.27 13.6802 26.22C13.6802 32.87 16.2302 39.87 20.2902 46.17L36.3502 71.08C37.1202 72.28 38.8802 72.28 39.6502 71.08L55.7102 46.17C59.7602 39.88 62.3202 32.87 62.3202 26.22C62.4202 20.27 60.0702 14.55 55.8202 10.37ZM38.0202 39.63C31.2202 39.64 25.7102 34.13 25.6902 27.33C25.6902 24.07 26.9902 20.93 29.2902 18.62C31.5902 16.31 34.7402 15 38.0002 15.02C44.8002 15.01 50.3102 20.52 50.3102 27.32C50.3102 34.12 44.8102 39.63 38.0102 39.63H38.0202Z" fill="#94B2AB"/>
<path fill-rule="evenodd" clip-rule="evenodd" d="M43.3 32.6099C40.38 35.5299 35.63 35.5299 32.71 32.6099C29.79 29.6899 29.79 24.9499 32.71 22.0199C34.11 20.6199 36.02 19.8199 38.01 19.8199C40 19.8199 41.9 20.5999 43.31 22.0199C46.23 24.9399 46.23 29.6799 43.31 32.6099H43.3Z" fill="#077765"/>
</svg>
