<svg width="76" height="75" viewBox="0 0 76 75" fill="none" xmlns="http://www.w3.org/2000/svg">
<path d="M3.65023 18.05L21.4202 9.46997C23.0802 8.66997 25.0002 9.87997 25.0002 11.72V57.55C25.0002 58.63 24.3102 59.58 23.2902 59.92L5.93023 65.68C4.32023 66.21 2.66023 65.03 2.65023 63.33L2.24023 20.32C2.24023 19.35 2.78023 18.47 3.65023 18.05Z" fill="white"/>
<path d="M27.21 10.94V57.38C27.21 58.42 27.87 59.34 28.85 59.67L48.42 66.36C49.99 66.9 51.62 65.73 51.62 64.07V18.66C51.62 17.67 51.01 16.77 50.09 16.41L30.52 8.68004C28.93 8.05004 27.21 9.22004 27.21 10.93V10.94Z" fill="white"/>
<path d="M55.5001 16.57L69.6501 10.03C71.5601 9.15004 73.7501 10.54 73.7501 12.65V56.82C73.7501 57.96 73.0701 59 72.0301 59.46L57.9501 65.66C56.0401 66.5 53.9001 65.11 53.9001 63.02L53.8301 19.19C53.8301 18.06 54.4801 17.04 55.5101 16.56L55.5001 16.57Z" fill="white"/>
</svg>
