<svg width="76" height="75" viewBox="0 0 76 75" fill="none" xmlns="http://www.w3.org/2000/svg">
<path fill-rule="evenodd" clip-rule="evenodd" d="M55.8202 9.76003C45.9602 -0.0399656 30.0402 -0.0399656 20.1802 9.76003C15.9302 13.94 13.5902 19.66 13.6802 25.61C13.6802 32.26 16.2302 39.26 20.2902 45.56L36.3502 70.47C37.1202 71.67 38.8802 71.67 39.6502 70.47L55.7102 45.56C59.7602 39.27 62.3202 32.26 62.3202 25.61C62.4202 19.66 60.0702 13.94 55.8202 9.76003ZM38.0202 39.02C31.2202 39.03 25.7102 33.52 25.6902 26.72C25.6902 23.46 26.9902 20.32 29.2902 18.01C31.5902 15.7 34.7402 14.39 38.0002 14.41C44.8002 14.4 50.3102 19.91 50.3102 26.71C50.3102 33.51 44.8102 39.02 38.0102 39.02H38.0202Z" fill="#94B2AB"/>
<path fill-rule="evenodd" clip-rule="evenodd" d="M43.3 32C40.38 34.92 35.63 34.92 32.71 32C29.79 29.08 29.79 24.34 32.71 21.41C34.11 20.01 36.02 19.21 38.01 19.21C40 19.21 41.9 19.99 43.31 21.41C46.23 24.33 46.23 29.07 43.31 32H43.3Z" fill="white"/>
</svg>
