<svg width="76" height="75" viewBox="0 0 76 75" fill="none" xmlns="http://www.w3.org/2000/svg">
<path d="M13.4702 3.44001V70.33C13.4702 70.79 14.0102 71.04 14.3602 70.74L20.8802 65.26C21.0802 65.1 21.3602 65.09 21.5602 65.26L30.5902 72.43C30.8002 72.6 31.1102 72.58 31.3102 72.39L38.3602 65.34C38.5602 65.14 38.8802 65.13 39.1002 65.31L47.2202 72.38C47.4402 72.57 47.7702 72.55 47.9702 72.34L54.4102 65.39C54.6202 65.17 54.9702 65.16 55.1902 65.38L61.6202 71.81C61.9602 72.15 62.5402 71.91 62.5402 71.43V3.68001C62.5402 3.18001 61.9202 2.95001 61.6002 3.32001L55.4702 10.32C55.2602 10.56 54.9002 10.57 54.6802 10.34L47.1302 2.62001C46.9302 2.41001 46.6002 2.40001 46.3802 2.60001L38.4002 9.84001C38.1902 10.03 37.8602 10.03 37.6602 9.82001L30.5102 2.62001C30.3002 2.41001 29.9702 2.41001 29.7602 2.61001L22.4702 9.55001C22.2702 9.74001 21.9502 9.75001 21.7402 9.56001L14.4002 3.04001C14.0502 2.73001 13.5002 2.98001 13.5002 3.44001H13.4702Z" fill="#94B1AA"/>
<path d="M54.2601 27.28H22.6001C21.3501 27.28 20.3301 26.26 20.3301 25.01C20.3301 23.76 21.3501 22.74 22.6001 22.74H54.2601C55.5101 22.74 56.5301 23.76 56.5301 25.01C56.5301 26.26 55.5101 27.28 54.2601 27.28Z" fill="white"/>
<path d="M54.2601 39.95H22.6001C21.3501 39.95 20.3301 38.93 20.3301 37.68C20.3301 36.43 21.3501 35.41 22.6001 35.41H54.2601C55.5101 35.41 56.5301 36.43 56.5301 37.68C56.5301 38.93 55.5101 39.95 54.2601 39.95Z" fill="white"/>
<path d="M54.2601 52H22.6001C21.3501 52 20.3301 50.98 20.3301 49.73C20.3301 48.48 21.3501 47.46 22.6001 47.46H54.2601C55.5101 47.46 56.5301 48.48 56.5301 49.73C56.5301 50.98 55.5101 52 54.2601 52Z" fill="white"/>
</svg>
