<svg width="76" height="75" viewBox="0 0 76 75" fill="none" xmlns="http://www.w3.org/2000/svg">
<path d="M37.3698 9.81L10.3198 34.74V62.3C10.3198 65.84 13.1798 68.72 16.7198 68.72H59.4798C63.0198 68.72 65.8798 65.85 65.8798 62.3V34.74L37.3698 9.81ZM45.9898 47.42C45.9898 49.54 44.2798 51.23 42.1798 51.23H33.6298C31.5298 51.23 29.8198 49.54 29.8198 47.42V39.49C29.8198 37.39 31.5298 35.7 33.6298 35.7H42.1798C44.2798 35.7 45.9898 37.39 45.9898 39.49V47.42Z" fill="#779B92"/>
<path d="M72.5399 40.19C71.8299 41 70.8499 41.42 69.8399 41.42C69.0299 41.42 68.2199 41.16 67.5699 40.59L36.7899 14.46L8.48987 39.7C7.02987 41 4.80987 40.86 3.51987 39.4C2.22987 37.94 2.35987 35.72 3.81987 34.43L34.3899 7.17002C35.7099 6.01002 37.6899 5.99002 39.0299 7.12002L53.3599 19.29V9.82002H66.1599V30.15L72.1399 35.23C73.6199 36.48 73.7999 38.72 72.5499 40.2L72.5399 40.19Z" fill="#B7CAC5"/>
</svg>
