<svg width="76" height="75" viewBox="0 0 76 75" fill="none" xmlns="http://www.w3.org/2000/svg">
<path d="M70.6802 19.52C70.5102 18.55 69.3102 18.12 68.5402 18.78L59.4202 26.7C58.9902 27.07 58.5002 27.27 57.9602 27.33L49.0102 28.25C48.0702 28.34 47.2702 27.59 47.3202 26.65L47.7202 18.7C47.7502 17.99 48.0302 17.33 48.5202 16.81C50.4902 14.75 55.8402 9.14999 58.3002 6.56999C58.8702 5.96999 58.5902 4.99999 57.7902 4.82999C48.0702 2.88999 28.3602 3.08999 30.2802 29.62C30.3702 30.68 29.9902 31.74 29.2202 32.51L7.71018 53.87C6.25018 55.33 5.22018 57.16 4.91018 59.19C4.31018 63.22 4.68018 69.51 12.6602 70.8C15.4902 71.23 18.3802 70.23 20.4702 68.28C26.2802 62.96 38.6302 51.15 42.9702 46.98C43.9102 46.06 45.2002 45.61 46.5402 45.64C53.4302 45.9 75.1902 44.72 70.6702 19.53L70.6802 19.52ZM15.6602 64.13C13.6002 64.13 11.9402 62.44 11.9402 60.38C11.9402 58.32 13.6002 56.66 15.6602 56.66C17.7202 56.66 19.3802 58.32 19.3802 60.38C19.3802 62.44 17.7202 64.13 15.6602 64.13Z" fill="white"/>
</svg>
