<svg width="76" height="75" viewBox="0 0 76 75" fill="none" xmlns="http://www.w3.org/2000/svg">
<path d="M30.2899 30.9C30.1499 31.55 29.8399 32.11 29.3599 32.59L8.21994 53.59C6.78994 55.02 5.76994 56.82 5.46994 58.82C4.87994 62.78 5.24994 68.97 13.0899 70.23C15.8699 70.65 18.7099 69.67 20.7599 67.76C26.4699 62.53 38.6099 50.92 42.8799 46.82C43.1899 46.51 43.5499 46.26 43.9499 46.09C37.5999 43.08 32.6199 37.63 30.2899 30.91V30.9ZM16.0399 63.68C14.0199 63.68 12.3899 62.02 12.3899 60C12.3899 57.98 14.0199 56.35 16.0399 56.35C18.0599 56.35 19.6899 57.98 19.6899 60C19.6899 62.02 18.0599 63.68 16.0399 63.68Z" fill="#9BC8C0"/>
<path d="M46.4001 45.49C45.5301 45.46 44.6901 45.66 43.9501 46.08C37.6001 43.07 32.6201 37.62 30.2901 30.9C30.4001 30.53 30.4301 30.14 30.4001 29.75C28.5201 3.65997 47.8801 3.46997 57.4401 5.37997C58.2301 5.54997 58.5101 6.49997 57.9501 7.08997C55.5301 9.61997 50.2801 15.13 48.3401 17.15C47.8601 17.66 47.5801 18.3 47.5501 19.01L47.1601 26.82C47.1001 27.75 47.8901 28.48 48.8201 28.39L57.6201 27.49C58.1501 27.43 58.6301 27.24 59.0501 26.87L68.0201 19.08C68.7801 18.43 69.9601 18.86 70.1301 19.81C74.5701 44.57 53.1801 45.73 46.4101 45.47L46.4001 45.49Z" fill="#157F6E"/>
</svg>
