<svg width="76" height="75" viewBox="0 0 76 75" fill="none" xmlns="http://www.w3.org/2000/svg">
<path d="M69.9202 62.85L54.0202 46.98C57.4402 42.42 59.4902 36.77 59.4902 30.64C59.4902 15.68 47.3302 3.48999 32.3802 3.48999C17.4302 3.48999 5.2002 15.7 5.2002 30.65C5.2002 45.6 17.3902 57.8 32.3802 57.8C37.2502 57.8 41.8402 56.51 45.7602 54.25L62.1602 70.65C63.2902 71.78 65.1402 71.78 66.3102 70.65L69.9202 67.01C71.0802 65.88 71.0802 64.03 69.9202 62.86V62.85ZM14.6302 30.65C14.6302 20.88 22.6102 12.93 32.3802 12.93C42.1502 12.93 50.0702 20.88 50.0702 30.65C50.0702 40.42 42.1202 48.37 32.3802 48.37C22.6402 48.37 14.6302 40.42 14.6302 30.65Z" fill="white"/>
</svg>
