<svg width="76" height="75" viewBox="0 0 76 75" fill="none" xmlns="http://www.w3.org/2000/svg">
<path d="M73.1099 24.96V57.56C73.1099 61.72 69.7199 65.08 65.5899 65.08H10.4199C6.2599 65.08 2.8999 61.72 2.8999 57.56V17.44C2.8999 13.3 6.2599 9.91998 10.4199 9.91998H26.3199C29.6299 9.91998 32.8399 11.25 35.1999 13.58L36.8599 15.24C38.2599 16.67 40.1699 17.45 42.1799 17.45H65.5999C69.7399 17.45 73.1199 20.84 73.1199 24.97L73.1099 24.96Z" fill="#9CC9C1"/>
<path d="M53.62 52.15L46.52 45.07C48.05 43.04 48.96 40.51 48.96 37.78C48.96 31.11 43.53 25.66 36.86 25.66C30.19 25.66 24.73 31.1 24.73 37.78C24.73 44.46 30.17 49.9 36.86 49.9C39.03 49.9 41.08 49.33 42.83 48.32L50.15 55.64C50.65 56.14 51.48 56.14 52 55.64L53.61 54.01C54.13 53.51 54.13 52.68 53.61 52.16L53.62 52.15ZM28.94 37.78C28.94 33.42 32.5 29.87 36.86 29.87C41.22 29.87 44.75 33.42 44.75 37.78C44.75 42.14 41.2 45.69 36.86 45.69C32.52 45.69 28.94 42.14 28.94 37.78Z" fill="#077765"/>
</svg>
