<svg width="76" height="75" viewBox="0 0 76 75" fill="none" xmlns="http://www.w3.org/2000/svg">
<path d="M67.71 17.07V30.33H8.29004V17.07C8.29004 14.51 10.37 12.43 12.93 12.43H63.08C65.64 12.43 67.72 14.51 67.72 17.07H67.71Z" fill="#B7CAC5"/>
<path d="M67.71 30.33V67.23C67.71 69.79 65.63 71.87 63.07 71.87H12.93C10.37 71.87 8.29004 69.79 8.29004 67.23V30.33H67.72H67.71Z" fill="#779B92"/>
<path d="M55.9599 6.7V12.42H45.4399V6.7C45.4399 4.9 47.8099 3.44 50.6999 3.44C53.5899 3.44 55.9499 4.89 55.9499 6.7H55.9599Z" fill="#B7CAC5"/>
<path d="M31.1501 6.4V12.42H20.6401V6.4C20.6401 4.59 23.0001 3.13 25.8801 3.13C28.7601 3.13 31.1401 4.58 31.1401 6.4H31.1501Z" fill="#B7CAC5"/>
</svg>
