<svg width="76" height="75" viewBox="0 0 76 75" fill="none" xmlns="http://www.w3.org/2000/svg">
<path d="M66.6401 64.66C66.6401 64.8 66.6401 64.93 66.6301 65.07C66.5901 65.62 66.4801 66.13 66.3001 66.61C66.2601 66.72 66.2201 66.81 66.1801 66.91C66.1301 67.05 66.0601 67.18 65.9801 67.32C65.9301 67.43 65.8601 67.54 65.7901 67.65C65.6901 67.79 65.6001 67.92 65.4901 68.05C65.3801 68.19 65.2701 68.31 65.1501 68.43C64.0001 69.56 62.3701 70.22 60.6501 70.22H60.6401L13.9501 70.19C11.9001 70.19 10.1701 68.98 9.59014 67.31C9.45014 66.93 9.39014 66.52 9.39014 66.1V8.88003C9.39014 8.77003 9.39014 8.66003 9.42014 8.55003C9.43014 8.41003 9.45014 8.29003 9.47014 8.17003C9.50014 7.97003 9.55014 7.77003 9.63014 7.58003C10.2301 5.96003 11.9501 4.78003 13.9501 4.78003H54.3801C62.1901 11.87 55.0501 5.39003 66.6401 15.89V64.64V64.66Z" fill="#94B1AA"/>
<path d="M25.5998 50.12C25.2298 49.35 25.5398 48.42 26.2998 48.05C27.0698 47.66 27.9998 47.97 28.3698 48.73L30.4998 53L35.1698 48.33C35.5298 47.99 36.0198 47.82 36.5198 47.9C37.0098 47.99 37.4298 48.3 37.6498 48.74L39.6298 52.7L42.7698 48.51C43.0598 48.12 43.5098 47.89 44.0098 47.89H51.7398C52.5898 47.89 53.2898 48.59 53.2898 49.44C53.2898 50.29 52.5898 50.99 51.7398 50.99H44.7798L40.5998 56.56C40.2798 56.99 39.7598 57.24 39.2198 57.18C38.6798 57.13 38.2098 56.81 37.9698 56.33L35.8398 52.06L31.1798 56.73C30.8898 57.02 30.4798 57.18 30.0798 57.18C29.9998 57.18 29.9098 57.18 29.8298 57.16C29.3398 57.08 28.9198 56.77 28.6898 56.32L25.5998 50.13V50.12Z" fill="white"/>
<path d="M31.32 9.51001H15.98V13.29H31.32V9.51001Z" fill="#077765"/>
<path d="M31.2399 17.08H15.8999V20.86H31.2399V17.08Z" fill="#077765"/>
<path d="M54.3599 4.78998V15.91H66.6199L54.3599 4.78998Z" fill="white"/>
</svg>
