<svg width="76" height="75" viewBox="0 0 76 75" fill="none" xmlns="http://www.w3.org/2000/svg">
<path d="M72.8101 14.93C72.2501 13.87 71.1201 13.24 69.9301 13.24H27.7601C26.5601 13.24 25.3901 13.83 24.8101 14.89C24.2301 15.95 24.2101 17.24 24.8501 18.25C24.9101 18.31 24.9101 18.38 24.9801 18.44L39.1601 37.13C39.6701 37.8 39.9401 38.62 39.9401 39.46V49.07C39.9401 49.95 40.3801 50.76 41.1301 51.2L52.1301 57.67C52.5101 57.92 53.0101 58.05 53.4401 58.05C53.8701 58.05 54.2901 57.91 54.6801 57.71C55.4701 57.3 55.9401 56.45 55.9401 55.56V39.44C55.9401 38.61 56.2101 37.8 56.7101 37.14L72.5501 18.44C72.6101 18.38 72.6101 18.31 72.6801 18.25C73.3101 17.25 73.3701 16 72.8101 14.93Z" fill="white"/>
<path d="M37.7799 38.39C38.2999 38.99 38.3799 39.85 37.9799 40.54L35.8699 44.16C35.3699 44.82 35.0899 45.61 35.0899 46.45V59.31C35.0899 60.19 34.6299 61.02 33.8399 61.42C33.4399 61.62 33.0399 61.75 32.5899 61.75C32.1399 61.75 31.6499 61.63 31.2699 61.37L21.9099 56.55C21.1699 56.12 20.7199 55.3 20.7199 54.42V46.47C20.7199 45.63 20.4599 44.8 19.9399 44.14L3.95992 25.74C3.88992 25.69 3.88992 25.62 3.82992 25.56C3.20992 24.54 2.42992 22.54 3.00992 21.47C3.58992 20.4 4.76992 19.81 5.97992 19.81H22.3999C23.1599 19.81 23.8799 20.14 24.3799 20.71L37.7899 38.39H37.7799Z" fill="white"/>
</svg>
