<svg width="76" height="75" viewBox="0 0 76 75" fill="none" xmlns="http://www.w3.org/2000/svg">
<path d="M42.8154 51.3564L50.6431 43.5287L71.1987 64.0843C71.5593 64.4449 71.5593 65.0389 71.1987 65.3995L64.6862 71.912C64.3256 72.2726 63.7317 72.2726 63.371 71.912L42.8154 51.3564Z" fill="#B7CAC5"/>
<path d="M31.8998 57.55C16.8098 57.55 4.52979 45.27 4.52979 30.18C4.52979 15.09 16.8098 2.82001 31.8998 2.82001C46.9898 2.82001 59.2598 15.09 59.2598 30.18C59.2598 45.27 46.9898 57.55 31.8998 57.55ZM31.8998 12.32C22.0498 12.32 14.0398 20.33 14.0398 30.18C14.0398 40.03 22.0498 48.04 31.8998 48.04C41.7498 48.04 49.7598 40.03 49.7598 30.18C49.7598 20.33 41.7498 12.32 31.8998 12.32Z" fill="#779B92"/>
</svg>
