<svg width="76" height="75" viewBox="0 0 76 75" fill="none" xmlns="http://www.w3.org/2000/svg">
<path d="M37.3498 9L9.50977 34.66V63.02C9.50977 66.67 12.4498 69.63 16.0998 69.63H60.1098C63.7598 69.63 66.6998 66.67 66.6998 63.02V34.66L37.3598 9H37.3498ZM46.2198 47.71C46.2198 49.89 44.4598 51.63 42.2998 51.63H33.4998C31.3398 51.63 29.5798 49.89 29.5798 47.71V39.54C29.5798 37.38 31.3398 35.64 33.4998 35.64H42.2998C44.4598 35.64 46.2198 37.38 46.2198 39.54V47.71Z" fill="#9CC9C1"/>
<path d="M73.5498 40.27C72.8198 41.1 71.8098 41.54 70.7698 41.54C69.9398 41.54 69.0998 41.27 68.4298 40.69L36.7498 13.8L7.61977 39.76C6.10977 41.1 3.82977 40.96 2.49977 39.45C1.17977 37.94 1.29977 35.66 2.80977 34.33L34.2798 6.27997C35.6398 5.07997 37.6698 5.05997 39.0498 6.22997L53.7998 18.75V9.00997H66.9698V29.93L73.1198 35.16C74.6398 36.45 74.8298 38.75 73.5398 40.28L73.5498 40.27Z" fill="white"/>
</svg>
