<svg xmlns="http://www.w3.org/2000/svg" width="238.747" height="23" viewBox="0 0 238.747 23">
  <g id="new_logo" transform="translate(-39 -53)">
    <g id="Logo" transform="translate(39 53)">
      <g id="Group_12" data-name="Group 12" transform="translate(0 0)">
        <path id="Path_39" data-name="Path 39" d="M4.76-15.142,8.43-11.473-2.43-.613h0L-6.1,3.058l-8.044-8.044,3.669-3.669L-6.1-4.282Z" transform="translate(25 19.942)" fill="#4ecca3"/>
        <path id="Path_37" data-name="Path 37" d="M0,14.53l4.455-4.455V4.365H8.218V6.313L10.86,3.671h0L14.528,0l8.044,8.044L18.9,11.713,14.529,7.34,3.669,18.2Z" fill="#fff"/>
      </g>
    </g>
    <g id="Group_8620" data-name="Group 8620" transform="translate(80.003 58.045)">
      <path id="Path_2223" data-name="Path 2223" d="M-7093.888-16.627V-28.713h-5.786a.23.23,0,0,1-.231-.23V-31.8a1.907,1.907,0,0,1,1.915-1.9h13.236a1.907,1.907,0,0,1,1.914,1.9v2.856a.23.23,0,0,1-.23.23h-5.786v12.086Z" transform="translate(7249.495 33.778)" fill="#fff"/>
      <path id="Path_2228" data-name="Path 2228" d="M5.952-61.751V-79.1H10.7v6.65h5.981V-79.1h4.75v17.349h-4.75v-6.865H10.7v6.865Z" transform="translate(-5.952 79.451)" fill="#fff"/>
      <path id="Path_2227" data-name="Path 2227" d="M14.2-61.045A9.4,9.4,0,0,1,9.541-62.2a8.721,8.721,0,0,1-3.279-3.157,8.568,8.568,0,0,1-1.212-4.519,8.539,8.539,0,0,1,1.212-4.514,8.767,8.767,0,0,1,3.284-3.157A9.4,9.4,0,0,1,14.207-78.7a9.335,9.335,0,0,1,4.65,1.157A8.771,8.771,0,0,1,22.125-74.4a8.566,8.566,0,0,1,1.206,4.529,8.58,8.58,0,0,1-1.206,4.518A8.69,8.69,0,0,1,18.852-62.2,9.4,9.4,0,0,1,14.2-61.045Zm0-4.452a3.814,3.814,0,0,0,2.118-.581A3.87,3.87,0,0,0,17.7-67.65a4.979,4.979,0,0,0,.488-2.232A4.96,4.96,0,0,0,17.7-72.11a3.876,3.876,0,0,0-1.386-1.568,3.808,3.808,0,0,0-2.116-.581,3.818,3.818,0,0,0-2.118.581,3.91,3.91,0,0,0-1.393,1.566,4.9,4.9,0,0,0-.493,2.227,4.947,4.947,0,0,0,.493,2.233,3.911,3.911,0,0,0,1.392,1.574A3.805,3.805,0,0,0,14.2-65.5ZM26.336-61.44V-71.4a7.226,7.226,0,0,1,.976-3.739,6.874,6.874,0,0,1,2.78-2.61,9.116,9.116,0,0,1,4.315-.954,9.249,9.249,0,0,1,2.292.269,8.049,8.049,0,0,1,1.93.757,6.434,6.434,0,0,1,1.513,1.146H40.2a7.182,7.182,0,0,1,1.541-1.146,7.916,7.916,0,0,1,1.936-.757,9.382,9.382,0,0,1,2.3-.269,9.174,9.174,0,0,1,4.331.954,6.868,6.868,0,0,1,2.786,2.61A7.224,7.224,0,0,1,54.07-71.4v9.958H48.949v-9.815a2.848,2.848,0,0,0-.406-1.5,3.168,3.168,0,0,0-1.1-1.091,3.017,3.017,0,0,0-1.59-.417,3.062,3.062,0,0,0-1.585.417,3.123,3.123,0,0,0-1.113,1.091,2.849,2.849,0,0,0-.406,1.5v9.815h-5.1v-9.815a2.819,2.819,0,0,0-.411-1.5,3.185,3.185,0,0,0-1.113-1.091,3.075,3.075,0,0,0-1.6-.417,3.042,3.042,0,0,0-1.574.417,3.123,3.123,0,0,0-1.113,1.091,2.849,2.849,0,0,0-.406,1.5v9.815Zm40.334,0A11.238,11.238,0,0,1,61.647-62.5a8.181,8.181,0,0,1-3.372-2.966,8,8,0,0,1-1.212-4.392,9.267,9.267,0,0,1,1.151-4.748A7.935,7.935,0,0,1,61.3-77.642,8.755,8.755,0,0,1,65.573-78.7a8.305,8.305,0,0,1,4.458,1.113,7.075,7.075,0,0,1,2.709,3.043,10.138,10.138,0,0,1,.916,4.4q0,.428-.044.993a5.479,5.479,0,0,1-.131.9H62.426a3.251,3.251,0,0,0,.767,1.453,3.314,3.314,0,0,0,1.4.872,6.086,6.086,0,0,0,1.93.285h5.144v4.2Zm-4.365-9.99h6.4a5.078,5.078,0,0,0-.187-1.031,3.03,3.03,0,0,0-.411-.872A2.976,2.976,0,0,0,67.481-74a2.7,2.7,0,0,0-.85-.433,3.543,3.543,0,0,0-1.069-.154,3.251,3.251,0,0,0-1.343.263,2.891,2.891,0,0,0-.982.7,3.3,3.3,0,0,0-.619,1.009A5.251,5.251,0,0,0,62.305-71.43Z" transform="translate(13.614 78.92)" fill="#fff"/>
      <path id="Path_2230" data-name="Path 2230" d="M17.084-61.034a9.407,9.407,0,0,1-4.5-1.014,7.314,7.314,0,0,1-2.917-2.731,7.36,7.36,0,0,1-1.02-3.833v-9.694h5.1v9.563a3.206,3.206,0,0,0,.428,1.623,3.229,3.229,0,0,0,1.179,1.19,3.245,3.245,0,0,0,1.683.444,3.187,3.187,0,0,0,1.672-.444,3.255,3.255,0,0,0,1.168-1.19,3.206,3.206,0,0,0,.428-1.623v-9.563h5.11v9.694a7.518,7.518,0,0,1-.992,3.833,7.171,7.171,0,0,1-2.857,2.731A9.262,9.262,0,0,1,17.084-61.034ZM29.2-61.44v-9.694a7.359,7.359,0,0,1,1.02-3.832,7.279,7.279,0,0,1,2.917-2.725,9.446,9.446,0,0,1,4.5-1.009,9.3,9.3,0,0,1,4.485,1.009,7.137,7.137,0,0,1,2.857,2.725,7.516,7.516,0,0,1,.992,3.832v9.694h-5.11V-71a3.2,3.2,0,0,0-.428-1.628,3.268,3.268,0,0,0-1.168-1.184,3.187,3.187,0,0,0-1.672-.444,3.245,3.245,0,0,0-1.683.444,3.242,3.242,0,0,0-1.179,1.184A3.2,3.2,0,0,0,34.3-71v9.563Z" transform="translate(101.165 78.701)" fill="#fff"/>
      <path id="Path_2231" data-name="Path 2231" d="M14.657-61.44A11.238,11.238,0,0,1,9.635-62.5,8.181,8.181,0,0,1,6.262-65.47a8,8,0,0,1-1.212-4.392A9.267,9.267,0,0,1,6.2-74.61a7.935,7.935,0,0,1,3.087-3.032A8.755,8.755,0,0,1,13.56-78.7a8.305,8.305,0,0,1,4.458,1.113,7.075,7.075,0,0,1,2.709,3.043,10.138,10.138,0,0,1,.916,4.4q0,.428-.044.993a5.479,5.479,0,0,1-.131.9H10.413a3.251,3.251,0,0,0,.767,1.453,3.314,3.314,0,0,0,1.4.872,6.086,6.086,0,0,0,1.93.285h5.144v4.2Zm-4.365-9.99h6.4a5.079,5.079,0,0,0-.187-1.031,3.03,3.03,0,0,0-.411-.872A2.976,2.976,0,0,0,15.468-74a2.7,2.7,0,0,0-.85-.433,3.543,3.543,0,0,0-1.069-.154,3.251,3.251,0,0,0-1.343.263,2.892,2.892,0,0,0-.982.7,3.3,3.3,0,0,0-.619,1.009A5.251,5.251,0,0,0,10.292-71.43ZM24.45-61.44V-73.36a4.89,4.89,0,0,1,1.316-3.619,4.936,4.936,0,0,1,3.652-1.316h4.913v4.156H30.679a1.1,1.1,0,0,0-.795.313,1.071,1.071,0,0,0-.324.806v11.58Z" transform="translate(163.413 78.701)" fill="#fff"/>
      <path id="Path_2229" data-name="Path 2229" d="M5.952-61.751V-79.1H10.7v6.65h5.981V-79.1h4.75v17.349h-4.75v-6.865H10.7v6.865Z" transform="translate(84.41 79.451)" fill="#fff"/>
    </g>
  </g>
</svg>
