<svg width="300" height="29" viewBox="0 0 300 29" fill="none" xmlns="http://www.w3.org/2000/svg">
<path d="M37.3965 6.03125L42.0075 10.6422L28.3614 24.2873L23.7517 28.9002L13.6445 18.793L18.2555 14.1823L23.7504 19.6771L37.3965 6.03125Z" fill="#4ECCA3"/>
<path d="M0 18.2582L5.59846 12.6598V5.48436H10.326V7.9322L13.6461 4.6121L18.2558 0L28.363 10.1072L23.752 14.7168L18.2571 9.22309L4.611 22.869L0 18.2582Z" fill="#12221E"/>
<path d="M247.053 27.89V12.7047H239.783C239.706 12.7048 239.632 12.6746 239.578 12.6205C239.523 12.5665 239.493 12.4931 239.492 12.4164V8.82676C239.496 8.19209 239.752 7.58503 240.203 7.13862C240.655 6.69222 241.264 6.44291 241.899 6.44533H258.531C259.166 6.44327 259.775 6.69275 260.226 7.13911C260.677 7.58547 260.932 8.19233 260.936 8.82676V12.4153C260.936 12.4918 260.906 12.5651 260.852 12.6192C260.798 12.6732 260.724 12.7036 260.648 12.7036H253.377V27.8889L247.053 27.89Z" fill="#12221E"/>
<path d="M51.5234 28.5789V6.7793H57.492V15.1356H65.0081V6.7793H70.9767V28.5789H65.0081V19.9528H57.492V28.5789H51.5234Z" fill="#12221E"/>
<path d="M86.4682 28.8002C84.426 28.8316 82.4105 28.3331 80.6184 27.3533C78.918 26.419 77.4962 25.0501 76.4982 23.3864C75.4737 21.6714 74.9466 19.7052 74.9758 17.7077C74.9459 15.7122 75.4731 13.7478 76.4982 12.0354C77.5002 10.3726 78.9239 9.00405 80.625 8.06849C82.4183 7.08478 84.4365 6.58383 86.4817 6.61473C88.5225 6.5827 90.5364 7.0838 92.3243 8.06849C94.0164 9.00403 95.4325 10.3682 96.4307 12.0241C97.4551 13.7432 97.98 15.7138 97.9465 17.7146C97.9766 19.7109 97.4519 21.6763 96.4307 23.3919C95.4353 25.0539 94.0156 26.4211 92.3174 27.3533C90.5255 28.3331 88.5102 28.8316 86.4682 28.8002ZM86.4662 23.2056C87.4057 23.2284 88.3311 22.9744 89.1274 22.4753C89.879 21.99 90.4822 21.3069 90.8705 20.5009C91.2895 19.6263 91.4994 18.6663 91.4837 17.6967C91.4997 16.7284 91.2897 15.7697 90.8705 14.8967C90.4813 14.0922 89.8783 13.4104 89.1274 12.9259C88.332 12.4267 87.4073 12.1726 86.4684 12.1953C85.5294 12.1731 84.6044 12.4272 83.8084 12.9259C83.0569 13.4102 82.4518 14.0903 82.0584 14.8931C81.6347 15.7638 81.4223 16.7222 81.4383 17.6904C81.4228 18.6613 81.635 19.6223 82.0578 20.4965C82.4494 21.3028 83.0541 21.9866 83.8065 22.4739C84.6019 22.9738 85.527 23.2283 86.4662 23.2056ZM101.722 28.3041V15.7921C101.697 14.1435 102.121 12.519 102.949 11.0932C103.78 9.69241 104.991 8.55547 106.442 7.81357C107.953 7.01434 109.76 6.61473 111.864 6.61473C112.834 6.60665 113.802 6.72016 114.744 6.95261C115.59 7.16368 116.406 7.48326 117.17 7.90341C117.871 8.28666 118.512 8.77184 119.071 9.34312H119.14C119.718 8.77876 120.369 8.29453 121.076 7.90341C121.842 7.48097 122.659 7.16128 123.508 6.95261C124.455 6.72077 125.427 6.60727 126.402 6.61473C128.515 6.61473 130.329 7.01434 131.845 7.81357C133.298 8.55405 134.511 9.69117 135.345 11.0932C136.173 12.519 136.597 14.1434 136.571 15.7921V28.3041H130.136V15.9715C130.143 15.3094 129.967 14.6583 129.626 14.0905C129.287 13.5266 128.814 13.0554 128.248 12.7192C127.644 12.3631 126.952 12.1818 126.25 12.1955C125.551 12.1859 124.863 12.367 124.259 12.7192C123.684 13.0508 123.203 13.5226 122.861 14.0905C122.52 14.6583 122.344 15.3094 122.351 15.9715V28.3041H115.943V15.9715C115.95 15.3085 115.771 14.6568 115.426 14.0905C115.081 13.5246 114.6 13.0534 114.027 12.7192C113.417 12.3641 112.722 12.183 112.016 12.1955C111.321 12.1871 110.637 12.3681 110.038 12.7192C109.463 13.0508 108.982 13.5226 108.639 14.0905C108.299 14.6583 108.122 15.3094 108.13 15.9715V28.3041H101.722ZM152.404 28.3041C150.007 28.3041 147.903 27.8586 146.093 26.9675C144.361 26.1446 142.893 24.8535 141.856 23.2401C140.824 21.587 140.295 19.6696 140.333 17.7212C140.333 15.3972 140.815 13.4084 141.78 11.7549C142.695 10.1499 144.038 8.83076 145.659 7.94448C147.306 7.05143 149.153 6.59372 151.026 6.61473C153.259 6.61473 155.126 7.08094 156.628 8.01337C158.113 8.92673 159.296 10.2565 160.031 11.8373C160.823 13.57 161.216 15.4582 161.182 17.363C161.182 17.7212 161.164 18.137 161.127 18.6103C161.103 18.9932 161.048 19.3735 160.961 19.7471H147.071C147.231 20.4283 147.563 21.057 148.036 21.573C148.522 22.0812 149.129 22.4581 149.8 22.6685C150.584 22.9175 151.403 23.0385 152.225 23.0267H158.688V28.3041H152.404ZM146.92 15.7505H154.967C154.934 15.3118 154.855 14.8777 154.733 14.4552C154.62 14.0648 154.446 13.6949 154.216 13.3597C153.997 13.0402 153.73 12.7567 153.423 12.5194C153.103 12.276 152.741 12.0916 152.356 11.9748C151.92 11.8422 151.467 11.7771 151.012 11.7819C150.432 11.7711 149.857 11.8838 149.324 12.1126C148.856 12.3166 148.435 12.6171 148.091 12.9945C147.757 13.3668 147.494 13.7963 147.313 14.2622C147.124 14.7413 146.992 15.2408 146.92 15.7505Z" fill="#12221E"/>
<path d="M200.111 28.5369C197.934 28.5369 196.05 28.1121 194.461 27.2625C192.945 26.4812 191.675 25.2931 190.796 23.8313C189.936 22.3735 189.493 20.7076 189.514 19.0153V6.83396H195.922V18.8499C195.917 19.5654 196.102 20.2693 196.459 20.8894C196.813 21.5093 197.324 22.025 197.94 22.3845C198.581 22.7598 199.313 22.9527 200.056 22.9425C200.794 22.9538 201.521 22.7607 202.157 22.3845C202.768 22.022 203.274 21.5067 203.625 20.8894C203.982 20.2693 204.167 19.5654 204.162 18.8499V6.83396H210.583V19.0153C210.606 20.7032 210.175 22.3663 209.336 23.8313C208.485 25.2887 207.241 26.4776 205.747 27.2625C204.185 28.1121 202.307 28.5369 200.111 28.5369ZM215.338 28.0273V15.846C215.316 14.1536 215.759 12.4878 216.619 11.0299C217.498 9.56922 218.767 8.38319 220.284 7.60563C221.874 6.76047 223.757 6.33789 225.934 6.33789C228.13 6.33789 230.009 6.76047 231.57 7.60563C233.065 8.38684 234.309 9.57368 235.159 11.0299C235.998 12.4949 236.429 14.158 236.407 15.846V28.0273H229.985V16.0113C229.992 15.2934 229.807 14.5868 229.448 13.965C229.095 13.3507 228.59 12.838 227.98 12.4768C227.345 12.1006 226.618 11.9074 225.879 11.9187C225.136 11.9085 224.405 12.1015 223.764 12.4768C223.149 12.8349 222.638 13.348 222.283 13.965C221.924 14.5868 221.738 15.2934 221.745 16.0113V28.0273H215.338Z" fill="#12221E"/>
<path d="M275.28 28.028C272.882 28.028 270.778 27.5824 268.969 26.6913C267.236 25.8685 265.768 24.5773 264.731 22.9639C263.7 21.3108 263.171 19.3934 263.209 17.4451C263.209 15.1211 263.691 13.1323 264.656 11.4787C265.571 9.87379 266.914 8.55461 268.535 7.66833C270.181 6.77538 272.029 6.31767 273.902 6.33858C276.134 6.33858 278.001 6.80479 279.503 7.73722C280.988 8.65054 282.172 9.98031 282.907 11.5611C283.699 13.2938 284.092 15.1821 284.058 17.0868C284.058 17.4451 284.039 17.8609 284.002 18.3342C283.979 18.7171 283.924 19.0973 283.837 19.471H269.947C270.107 20.1521 270.439 20.7807 270.912 21.2965C271.398 21.8048 272.004 22.1817 272.675 22.392C273.459 22.6411 274.278 22.7621 275.101 22.7503H281.564V28.028H275.28ZM269.795 15.4743H277.843C277.81 15.0356 277.731 14.6015 277.608 14.179C277.496 13.7886 277.321 13.4188 277.092 13.0835C276.872 12.7641 276.605 12.4806 276.299 12.2432C275.978 11.9999 275.617 11.8155 275.231 11.6986C274.796 11.566 274.343 11.501 273.888 11.5057C273.308 11.4949 272.733 11.6077 272.2 11.8364C271.731 12.0404 271.311 12.3409 270.966 12.7183C270.633 13.0906 270.369 13.5201 270.188 13.9861C270 14.4651 269.868 14.9646 269.795 15.4743ZM287.585 28.028V13.0496C287.585 11.1204 288.136 9.60466 289.239 8.50228C290.341 7.3999 291.871 6.8487 293.827 6.8487H300.001V12.071H295.412C295.228 12.0665 295.044 12.099 294.873 12.1664C294.701 12.2339 294.545 12.335 294.413 12.4637C294.278 12.5948 294.173 12.7526 294.103 12.927C294.033 13.1015 294 13.2887 294.007 13.4765V28.028H287.585Z" fill="#12221E"/>
<path d="M165.068 28.5789V6.7793H171.037V15.1356H178.553V6.7793H184.522V28.5789H178.553V19.9528H171.037V28.5789H165.068Z" fill="#12221E"/>
</svg>
