<svg xmlns="http://www.w3.org/2000/svg" xmlns:xlink="http://www.w3.org/1999/xlink" width="160" height="36" viewBox="0 0 160 36">
  <defs>
    <clipPath id="clip-logo-black">
      <rect width="160" height="36"/>
    </clipPath>
  </defs>
  <g id="logo-black" clip-path="url(#clip-logo-black)">
    <g id="Group_8624" data-name="Group 8624" transform="translate(-39 -42.708)">
      <g id="Logo" transform="translate(39 53)">
        <g id="Group_12" data-name="Group 12" transform="translate(0 0)">
          <path id="Path_39" data-name="Path 39" d="M-1.474-15.142.985-12.683-6.293-5.405h0L-8.752-2.945l-5.391-5.391,2.459-2.459,2.931,2.931Z" transform="translate(21.419 18.359)" fill="#4ecca3"/>
          <path id="Path_37" data-name="Path 37" d="M0,9.738,2.986,6.752V2.925H5.507V4.231L7.278,2.46h0L9.736,0l5.391,5.391L12.668,7.85,9.737,4.919,2.459,12.2Z" fill="#3c3838"/>
        </g>
      </g>
      <g id="Group_8620" data-name="Group 8620" transform="translate(66.479 56.381)">
        <path id="Path_2223" data-name="Path 2223" d="M-7095.873-22.256v-8.1h-3.878a.155.155,0,0,1-.155-.154v-1.914a1.278,1.278,0,0,1,1.284-1.27h8.871a1.278,1.278,0,0,1,1.282,1.27v1.914a.154.154,0,0,1-.154.154h-3.877v8.1Z" transform="translate(7200.156 33.75)" fill="#3c3838"/>
        <path id="Path_2228" data-name="Path 2228" d="M5.952-67.474V-79.1H9.135v4.457h4.009V-79.1h3.183v11.626H13.144v-4.6H9.135v4.6Z" transform="translate(-5.952 79.335)" fill="#3c3838"/>
        <path id="Path_2227" data-name="Path 2227" d="M11.18-66.868a6.3,6.3,0,0,1-3.12-.772,5.845,5.845,0,0,1-2.2-2.116,5.742,5.742,0,0,1-.812-3.029,5.723,5.723,0,0,1,.812-3.025,5.875,5.875,0,0,1,2.2-2.116,6.3,6.3,0,0,1,3.124-.775,6.256,6.256,0,0,1,3.116.775,5.878,5.878,0,0,1,2.19,2.11,5.741,5.741,0,0,1,.808,3.035,5.75,5.75,0,0,1-.808,3.028A5.824,5.824,0,0,1,14.3-67.64,6.3,6.3,0,0,1,11.18-66.868Zm0-2.984a2.556,2.556,0,0,0,1.419-.39,2.593,2.593,0,0,0,.93-1.053,3.337,3.337,0,0,0,.327-1.5,3.324,3.324,0,0,0-.327-1.493,2.6,2.6,0,0,0-.929-1.051,2.552,2.552,0,0,0-1.418-.39,2.559,2.559,0,0,0-1.419.389,2.62,2.62,0,0,0-.933,1.049A3.286,3.286,0,0,0,8.5-72.794a3.315,3.315,0,0,0,.33,1.5,2.621,2.621,0,0,0,.933,1.055A2.55,2.55,0,0,0,11.179-69.852Zm8.137,2.719v-6.673a4.842,4.842,0,0,1,.654-2.506,4.607,4.607,0,0,1,1.863-1.749,6.109,6.109,0,0,1,2.892-.639,6.2,6.2,0,0,1,1.536.18,5.394,5.394,0,0,1,1.293.507,4.312,4.312,0,0,1,1.014.768H28.6a4.814,4.814,0,0,1,1.032-.768,5.3,5.3,0,0,1,1.3-.507,6.287,6.287,0,0,1,1.544-.18,6.148,6.148,0,0,1,2.9.639,4.6,4.6,0,0,1,1.867,1.749,4.841,4.841,0,0,1,.654,2.506v6.673H34.47V-73.71a1.908,1.908,0,0,0-.272-1,2.123,2.123,0,0,0-.735-.731,2.022,2.022,0,0,0-1.066-.279,2.052,2.052,0,0,0-1.062.279,2.093,2.093,0,0,0-.746.731,1.909,1.909,0,0,0-.272,1v6.577H26.9V-73.71a1.889,1.889,0,0,0-.276-1,2.134,2.134,0,0,0-.746-.731,2.061,2.061,0,0,0-1.073-.279,2.039,2.039,0,0,0-1.055.279,2.093,2.093,0,0,0-.746.731,1.909,1.909,0,0,0-.272,1v6.577Zm27.03,0a7.531,7.531,0,0,1-3.366-.713,5.483,5.483,0,0,1-2.26-1.988,5.36,5.36,0,0,1-.812-2.943,6.211,6.211,0,0,1,.772-3.182,5.318,5.318,0,0,1,2.069-2.032,5.867,5.867,0,0,1,2.862-.709,5.566,5.566,0,0,1,2.987.746,4.742,4.742,0,0,1,1.815,2.039,6.8,6.8,0,0,1,.614,2.947q0,.287-.029.665a3.672,3.672,0,0,1-.088.606H43.5a2.178,2.178,0,0,0,.514.974,2.221,2.221,0,0,0,.941.584,4.079,4.079,0,0,0,1.293.191H49.7v2.815Zm-2.925-6.7h4.292a3.4,3.4,0,0,0-.125-.691,2.031,2.031,0,0,0-.276-.584,2,2,0,0,0-.423-.448,1.812,1.812,0,0,0-.569-.29,2.374,2.374,0,0,0-.717-.1,2.179,2.179,0,0,0-.9.176,1.938,1.938,0,0,0-.658.47,2.215,2.215,0,0,0-.415.676A3.519,3.519,0,0,0,43.421-73.828Z" transform="translate(7.457 78.848)" fill="#3c3838"/>
        <path id="Path_2230" data-name="Path 2230" d="M14.3-66.861a6.3,6.3,0,0,1-3.013-.68,4.9,4.9,0,0,1-1.955-1.83,4.933,4.933,0,0,1-.683-2.569v-6.5h3.417v6.409a2.149,2.149,0,0,0,.287,1.088,2.164,2.164,0,0,0,.79.8,2.174,2.174,0,0,0,1.128.3,2.136,2.136,0,0,0,1.121-.3,2.181,2.181,0,0,0,.783-.8,2.149,2.149,0,0,0,.287-1.088v-6.409h3.425v6.5a5.038,5.038,0,0,1-.665,2.569,4.805,4.805,0,0,1-1.914,1.83A6.207,6.207,0,0,1,14.3-66.861Zm8.121-.272v-6.5a4.932,4.932,0,0,1,.683-2.568,4.878,4.878,0,0,1,1.955-1.826,6.33,6.33,0,0,1,3.013-.676,6.233,6.233,0,0,1,3.006.676A4.783,4.783,0,0,1,32.995-76.2a5.037,5.037,0,0,1,.665,2.568v6.5H30.235v-6.409a2.143,2.143,0,0,0-.287-1.091,2.19,2.19,0,0,0-.783-.794,2.136,2.136,0,0,0-1.121-.3,2.174,2.174,0,0,0-1.128.3,2.172,2.172,0,0,0-.79.794,2.143,2.143,0,0,0-.287,1.091v6.409Z" transform="translate(64.944 78.701)" fill="#3c3838"/>
        <path id="Path_2231" data-name="Path 2231" d="M11.489-67.133a7.531,7.531,0,0,1-3.366-.713,5.483,5.483,0,0,1-2.26-1.988,5.36,5.36,0,0,1-.812-2.943,6.211,6.211,0,0,1,.772-3.182,5.318,5.318,0,0,1,2.069-2.032,5.867,5.867,0,0,1,2.862-.709,5.566,5.566,0,0,1,2.987.746,4.742,4.742,0,0,1,1.815,2.039,6.794,6.794,0,0,1,.614,2.947q0,.287-.029.665a3.671,3.671,0,0,1-.088.606H8.645a2.178,2.178,0,0,0,.514.974,2.221,2.221,0,0,0,.941.584,4.079,4.079,0,0,0,1.293.191H14.84v2.815Zm-2.925-6.7h4.292a3.4,3.4,0,0,0-.125-.691,2.031,2.031,0,0,0-.276-.584,1.994,1.994,0,0,0-.423-.448,1.812,1.812,0,0,0-.569-.29,2.374,2.374,0,0,0-.717-.1,2.179,2.179,0,0,0-.9.176,1.938,1.938,0,0,0-.658.47,2.214,2.214,0,0,0-.415.676A3.519,3.519,0,0,0,8.564-73.828Zm9.488,6.7v-7.988a3.277,3.277,0,0,1,.882-2.425,3.308,3.308,0,0,1,2.447-.882h3.292v2.785H22.226a.738.738,0,0,0-.533.209.718.718,0,0,0-.217.54v7.761Z" transform="translate(107.848 78.701)" fill="#3c3838"/>
        <path id="Path_2229" data-name="Path 2229" d="M5.952-67.474V-79.1H9.135v4.457h4.009V-79.1h3.183v11.626H13.144v-4.6H9.135v4.6Z" transform="translate(54.606 79.335)" fill="#3c3838"/>
      </g>
    </g>
  </g>
</svg>
