<svg xmlns="http://www.w3.org/2000/svg" xmlns:xlink="http://www.w3.org/1999/xlink" width="200" height="36" viewBox="0 0 200 36">
  <defs>
    <clipPath id="clip-logo-color">
      <rect width="200" height="36"/>
    </clipPath>
  </defs>
  <g id="logo-color" clip-path="url(#clip-logo-color)">
    <g id="Group_8624" data-name="Group 8624" transform="translate(-39 -45)">
      <g id="Logo" transform="translate(39 53)">
        <g id="Group_12" data-name="Group 12" transform="translate(0 0)">
          <path id="Path_39" data-name="Path 39" d="M1.693-15.142l3.074,3.074-9.1,9.1h0L-7.4.1l-6.738-6.738,3.074-3.074L-7.4-6.045Z" transform="translate(23.238 19.163)" fill="#4ecca3"/>
          <path id="Path_37" data-name="Path 37" d="M0,12.172,3.732,8.44V3.656H6.884V5.288L9.1,3.075h0L12.17,0l6.738,6.738L15.835,9.812,12.171,6.149l-9.1,9.1Z" fill="#3c3838"/>
        </g>
      </g>
      <g id="Group_8620" data-name="Group 8620" transform="translate(73.349 57.226)">
        <path id="Path_2223" data-name="Path 2223" d="M-7094.865-19.4V-29.521h-4.847a.194.194,0,0,1-.195-.192v-2.392a1.6,1.6,0,0,1,1.606-1.588h11.087a1.6,1.6,0,0,1,1.6,1.588v2.392a.192.192,0,0,1-.191.192h-4.847V-19.4Z" transform="translate(7225.22 33.764)" fill="#3c3838"/>
        <path id="Path_2228" data-name="Path 2228" d="M5.952-64.567V-79.1H9.931v5.571h5.011V-79.1h3.979v14.533H14.942v-5.751H9.931v5.751Z" transform="translate(-5.952 79.394)" fill="#3c3838"/>
        <path id="Path_2227" data-name="Path 2227" d="M12.712-63.91a7.877,7.877,0,0,1-3.9-.965A7.306,7.306,0,0,1,6.066-67.52a7.177,7.177,0,0,1-1.015-3.786,7.153,7.153,0,0,1,1.015-3.781,7.344,7.344,0,0,1,2.751-2.645,7.871,7.871,0,0,1,3.9-.969,7.82,7.82,0,0,1,3.9.969,7.348,7.348,0,0,1,2.737,2.637,7.176,7.176,0,0,1,1.01,3.794,7.188,7.188,0,0,1-1.01,3.784,7.28,7.28,0,0,1-2.742,2.641A7.876,7.876,0,0,1,12.712-63.91Zm0-3.73a3.2,3.2,0,0,0,1.774-.487,3.242,3.242,0,0,0,1.162-1.316,4.171,4.171,0,0,0,.409-1.87,4.155,4.155,0,0,0-.409-1.867,3.247,3.247,0,0,0-1.161-1.314,3.19,3.19,0,0,0-1.773-.487,3.2,3.2,0,0,0-1.774.486,3.275,3.275,0,0,0-1.167,1.311,4.107,4.107,0,0,0-.413,1.865,4.144,4.144,0,0,0,.413,1.871,3.276,3.276,0,0,0,1.166,1.318A3.188,3.188,0,0,0,12.711-67.64Zm10.171,3.4v-8.342a6.053,6.053,0,0,1,.818-3.133A5.758,5.758,0,0,1,26.028-77.9a7.637,7.637,0,0,1,3.615-.8,7.748,7.748,0,0,1,1.92.225,6.743,6.743,0,0,1,1.617.634,5.39,5.39,0,0,1,1.268.96h.046a6.018,6.018,0,0,1,1.291-.96,6.631,6.631,0,0,1,1.621-.634,7.86,7.86,0,0,1,1.929-.225,7.685,7.685,0,0,1,3.628.8A5.753,5.753,0,0,1,45.3-75.715a6.052,6.052,0,0,1,.818,3.133v8.342h-4.29v-8.222a2.385,2.385,0,0,0-.34-1.254,2.654,2.654,0,0,0-.919-.914,2.527,2.527,0,0,0-1.332-.349,2.565,2.565,0,0,0-1.328.349,2.616,2.616,0,0,0-.932.914,2.387,2.387,0,0,0-.34,1.254v8.222H32.362v-8.222a2.362,2.362,0,0,0-.344-1.254,2.668,2.668,0,0,0-.933-.914,2.576,2.576,0,0,0-1.341-.349,2.548,2.548,0,0,0-1.319.349,2.616,2.616,0,0,0-.932.914,2.387,2.387,0,0,0-.34,1.254v8.222Zm33.788,0a9.414,9.414,0,0,1-4.208-.891,6.854,6.854,0,0,1-2.825-2.485A6.7,6.7,0,0,1,48.623-71.3a7.763,7.763,0,0,1,.965-3.978,6.647,6.647,0,0,1,2.586-2.54,7.334,7.334,0,0,1,3.578-.887,6.957,6.957,0,0,1,3.734.933,5.927,5.927,0,0,1,2.269,2.549,8.493,8.493,0,0,1,.767,3.684q0,.358-.037.832a4.591,4.591,0,0,1-.11.758h-9.26a2.723,2.723,0,0,0,.643,1.217,2.776,2.776,0,0,0,1.176.73,5.1,5.1,0,0,0,1.617.239h4.309v3.519ZM53.014-72.61h5.365a4.254,4.254,0,0,0-.156-.863,2.538,2.538,0,0,0-.345-.73,2.493,2.493,0,0,0-.528-.56,2.265,2.265,0,0,0-.712-.363,2.968,2.968,0,0,0-.9-.129,2.724,2.724,0,0,0-1.125.22,2.422,2.422,0,0,0-.822.588,2.768,2.768,0,0,0-.519.845A4.4,4.4,0,0,0,53.014-72.61Z" transform="translate(10.584 78.885)" fill="#3c3838"/>
        <path id="Path_2230" data-name="Path 2230" d="M15.715-63.9a7.88,7.88,0,0,1-3.766-.85,6.127,6.127,0,0,1-2.444-2.287,6.166,6.166,0,0,1-.854-3.211V-78.37h4.272v8.011A2.686,2.686,0,0,0,13.281-69a2.705,2.705,0,0,0,.987,1,2.718,2.718,0,0,0,1.41.372,2.67,2.67,0,0,0,1.4-.372,2.727,2.727,0,0,0,.978-1,2.686,2.686,0,0,0,.358-1.36V-78.37H22.7v8.121a6.3,6.3,0,0,1-.831,3.211,6.007,6.007,0,0,1-2.393,2.287A7.758,7.758,0,0,1,15.715-63.9Zm10.151-.34v-8.121a6.165,6.165,0,0,1,.854-3.21,6.1,6.1,0,0,1,2.444-2.283,7.913,7.913,0,0,1,3.766-.845,7.791,7.791,0,0,1,3.757.845,5.978,5.978,0,0,1,2.393,2.283,6.3,6.3,0,0,1,.831,3.21v8.121H35.631v-8.011a2.678,2.678,0,0,0-.358-1.364,2.737,2.737,0,0,0-.978-.992,2.67,2.67,0,0,0-1.4-.372,2.718,2.718,0,0,0-1.41.372,2.716,2.716,0,0,0-.987.992,2.678,2.678,0,0,0-.358,1.364v8.011Z" transform="translate(83.343 78.701)" fill="#3c3838"/>
        <path id="Path_2231" data-name="Path 2231" d="M13.1-64.241a9.414,9.414,0,0,1-4.208-.891,6.854,6.854,0,0,1-2.825-2.485A6.7,6.7,0,0,1,5.051-71.3a7.763,7.763,0,0,1,.965-3.978A6.647,6.647,0,0,1,8.6-77.814a7.334,7.334,0,0,1,3.578-.887,6.957,6.957,0,0,1,3.734.933,5.927,5.927,0,0,1,2.269,2.549,8.493,8.493,0,0,1,.767,3.684q0,.358-.037.832a4.589,4.589,0,0,1-.11.758H9.543a2.723,2.723,0,0,0,.643,1.217,2.776,2.776,0,0,0,1.176.73,5.1,5.1,0,0,0,1.617.239h4.309v3.519ZM9.442-72.61h5.365a4.255,4.255,0,0,0-.156-.863,2.538,2.538,0,0,0-.344-.73,2.493,2.493,0,0,0-.528-.56,2.265,2.265,0,0,0-.712-.363,2.968,2.968,0,0,0-.9-.129,2.724,2.724,0,0,0-1.125.22,2.422,2.422,0,0,0-.822.588A2.768,2.768,0,0,0,9.7-73.6,4.4,4.4,0,0,0,9.442-72.61ZM21.3-64.241v-9.986a4.1,4.1,0,0,1,1.1-3.032,4.135,4.135,0,0,1,3.059-1.1h4.115v3.482H26.52a.922.922,0,0,0-.666.262.9.9,0,0,0-.271.675v9.7Z" transform="translate(136.073 78.701)" fill="#3c3838"/>
        <path id="Path_2229" data-name="Path 2229" d="M5.952-64.567V-79.1H9.931v5.571h5.011V-79.1h3.979v14.533H14.942v-5.751H9.931v5.751Z" transform="translate(69.745 79.394)" fill="#3c3838"/>
      </g>
    </g>
  </g>
</svg>
