<svg id="Group_7681" data-name="Group 7681" xmlns="http://www.w3.org/2000/svg" width="35.61" height="35.61" viewBox="0 0 35.61 35.61">
  <path id="Path_1164" data-name="Path 1164" d="M0,0H35.61V35.61H0Z" fill="none"/>
  <circle id="Ellipse_403" data-name="Ellipse 403" cx="4.5" cy="4.5" r="4.5" transform="translate(13 15)" fill="none" stroke="#d4d4d4" stroke-linecap="round" stroke-linejoin="round" stroke-width="1.5"/>
  <path id="Path_1165" data-name="Path 1165" d="M5.968,8.451H8.935A2.968,2.968,0,0,0,11.9,5.484,1.484,1.484,0,0,1,13.386,4h2.968M29.708,14.386V24.773A2.968,2.968,0,0,1,26.74,27.74H5.968A2.968,2.968,0,0,1,3,24.773V11.419A2.968,2.968,0,0,1,5.968,8.451" transform="translate(1.451 1.935)" fill="none" stroke="#d4d4d4" stroke-linecap="round" stroke-linejoin="round" stroke-width="1.5"/>
  <line id="Line_257" data-name="Line 257" x2="9" transform="translate(22 9)" fill="none" stroke="#d4d4d4" stroke-linecap="round" stroke-linejoin="round" stroke-width="1.5"/>
  <line id="Line_258" data-name="Line 258" y2="9" transform="translate(27 4)" fill="none" stroke="#d4d4d4" stroke-linecap="round" stroke-linejoin="round" stroke-width="1.5"/>
</svg>
