<svg xmlns="http://www.w3.org/2000/svg" width="26.703" height="30.955" viewBox="0 0 26.703 30.955">
  <path id="flat" d="M23.685,29.116V27.206a2.146,2.146,0,1,0-1.814,0v1.909a3.959,3.959,0,1,1,1.808-7.709V6.177h-6.5V29.131H15.366V2.581H13.894V0H1.472V2.581H0V30.955l26.7-.01V29.131H23.685v-.015ZM21.342,19.095H19.528v-2.58h1.814Zm0-5.159H19.528v-2.58h1.814Zm-10.5,2.58V19.1H9.028v-2.58Zm-1.814-2.58v-2.58h1.814v2.58Zm1.814,7.739v2.58H9.028v-2.58Zm0-12.9H9.028V6.2h1.814ZM4.514,6.2H6.328v2.58H4.514Zm0,5.159H6.328v2.58H4.514Zm0,5.159H6.328V19.1H4.514Zm0,5.159H6.328v2.58H4.514Zm0,0" fill="#bdcccb"/>
</svg>
