<svg xmlns="http://www.w3.org/2000/svg" width="15.106" height="15.106" viewBox="0 0 15.106 15.106">
  <path id="reduce" d="M12.255,3.55,9.827,5.979h1.662a.586.586,0,1,1,0,1.172h-2.2A1.467,1.467,0,0,1,7.825,5.686v-2.2A.586.586,0,0,1,9,3.488V5.15l2.428-2.428a.586.586,0,0,1,.829.829ZM6.624,12.016a.586.586,0,0,0,.586-.586v-2.2A1.467,1.467,0,0,0,5.744,7.767h-2.2a.586.586,0,1,0,0,1.172H5.209L2.78,11.368a.586.586,0,0,0,.829.829L6.038,9.768V11.43A.586.586,0,0,0,6.624,12.016Zm7.8-1.7a.586.586,0,0,0,.586-.586V2.345A2.347,2.347,0,0,0,12.661,0H2.345A2.347,2.347,0,0,0,0,2.345V12.661a2.347,2.347,0,0,0,2.345,2.345H12.661a2.347,2.347,0,0,0,2.345-2.345.586.586,0,0,0-1.172,0,1.174,1.174,0,0,1-1.172,1.172H2.345a1.174,1.174,0,0,1-1.172-1.172V2.345A1.174,1.174,0,0,1,2.345,1.172H12.661a1.174,1.174,0,0,1,1.172,1.172V9.73A.586.586,0,0,0,14.42,10.317Zm0,0" transform="translate(0.05 0.05)" fill="#a3aaa9" stroke="#a3aaa9" stroke-width="0.1"/>
</svg>
