<svg id="bed" xmlns="http://www.w3.org/2000/svg" width="22.901" height="16.388" viewBox="0 0 22.901 16.388">
  <g id="Group_1785" data-name="Group 1785">
    <path id="Path_971" data-name="Path 971" d="M20.776,79.945v-5.1a2.041,2.041,0,0,0-2.039-2.039H4.164a2.041,2.041,0,0,0-2.039,2.039v5.1A2.9,2.9,0,0,0,0,82.736v3.875a.68.68,0,0,0,.68.68H2.125v1.223a.68.68,0,0,0,1.36,0V87.291H19.417v1.223a.68.68,0,0,0,1.36,0V87.291h1.445a.68.68,0,0,0,.68-.68V82.736A2.9,2.9,0,0,0,20.776,79.945Zm-17.292-5.1a.68.68,0,0,1,.679-.679H18.737a.68.68,0,0,1,.679.679V79.84H17.824V78.475a2.155,2.155,0,0,0-2.152-2.152H12.923a2.144,2.144,0,0,0-1.472.585,2.144,2.144,0,0,0-1.472-.585H7.23a2.155,2.155,0,0,0-2.152,2.152V79.84H3.485Zm12.979,3.63V79.84H12.13V78.475a.793.793,0,0,1,.792-.792h2.749A.793.793,0,0,1,16.464,78.475Zm-5.693,0V79.84H6.437V78.475a.793.793,0,0,1,.792-.792H9.978A.793.793,0,0,1,10.771,78.475Zm10.771,7.456H1.36v-3.2A1.538,1.538,0,0,1,2.9,81.2H20a1.538,1.538,0,0,1,1.537,1.537Z" transform="translate(0 -72.806)" fill="#a3aaa9"/>
  </g>
</svg>
