<svg width="20" height="22" viewBox="0 0 20 22" fill="none" xmlns="http://www.w3.org/2000/svg">
<path d="M7.8348 3.42622C7.8348 2.85216 8.06284 2.30161 8.46876 1.89569C8.87469 1.48976 9.42524 1.26172 9.9993 1.26172C10.5734 1.26172 11.1239 1.48976 11.5298 1.89569C11.9358 2.30161 12.1638 2.85216 12.1638 3.42622C13.4079 4.01761 14.4678 4.93599 15.2303 6.08318C15.9928 7.23036 16.4292 8.56321 16.4928 9.93922V13.1962C16.5734 13.8709 16.8112 14.5172 17.1871 15.0832C17.5629 15.6492 18.0663 16.1191 18.6568 16.4552H1.3418C1.93203 16.1193 2.43527 15.6497 2.8111 15.084C3.18692 14.5184 3.42486 13.8725 3.5058 13.1982V9.94022C3.5694 8.56421 4.00578 7.23136 4.76828 6.08418C5.53078 4.93699 6.59073 4.01761 7.8348 3.42622Z" stroke="#1A1818" stroke-width="1.2" stroke-linecap="round" stroke-linejoin="round"/>
<path d="M6.74219 16.4023V17.4883C6.75715 18.3421 7.10682 19.1559 7.71591 19.7544C8.32499 20.3529 9.14476 20.6883 9.99869 20.6883C10.8526 20.6883 11.6724 20.3529 12.2815 19.7544C12.8906 19.1559 13.2402 18.3421 13.2552 17.4883V16.4023" stroke="#1A1818" stroke-width="1.2" stroke-linecap="round" stroke-linejoin="round"/>
</svg>
