<svg xmlns="http://www.w3.org/2000/svg" width="26" height="26" viewBox="0 0 26 26">
  <g id="Group_8274" data-name="Group 8274" transform="translate(-28 -277)">
    <path id="Path_2143" data-name="Path 2143" d="M0,0H26V26H0Z" transform="translate(28 277)" fill="none"/>
    <path id="Path_2144" data-name="Path 2144" d="M20.871,9.3l-6-4.666a3,3,0,0,0-3.683,0l-6,4.666A3,3,0,0,0,4.03,11.666v8.1a2.25,2.25,0,0,0,2.25,2.25h13.5a2.25,2.25,0,0,0,2.25-2.25v-8.1A3,3,0,0,0,20.871,9.3" transform="translate(28 277)" fill="none" stroke="#1a1818" stroke-linecap="round" stroke-linejoin="round" stroke-width="1.2"/>
    <path id="Path_2145" data-name="Path 2145" d="M16,15a8.5,8.5,0,0,1-8,0" transform="translate(29 278.304)" fill="none" stroke="#1a1818" stroke-linecap="round" stroke-linejoin="round" stroke-width="1.2"/>
  </g>
</svg>
