<svg xmlns="http://www.w3.org/2000/svg" width="24.269" height="21.758" viewBox="0 0 24.269 21.758">
  <g id="Group_8690" data-name="Group 8690" transform="translate(-2.866 -4.121)">
    <path id="Path_2150" data-name="Path 2150" d="M5.5,7.742H6.745a2.5,2.5,0,0,0,2.5-2.495A1.248,1.248,0,0,1,10.49,4h7.49a1.248,1.248,0,0,1,1.248,1.247,2.5,2.5,0,0,0,2.5,2.495h1.248a2.5,2.5,0,0,1,2.5,2.495V21.464a2.5,2.5,0,0,1-2.5,2.495H5.5A2.5,2.5,0,0,1,3,21.464V10.237A2.5,2.5,0,0,1,5.5,7.742" transform="translate(0.766 1.021)" fill="none" stroke="#1a1818" stroke-linecap="round" stroke-linejoin="round" stroke-width="1.8"/>
    <circle id="Ellipse_422" data-name="Ellipse 422" cx="4" cy="4" r="4" transform="translate(11.063 12.057)" fill="none" stroke="#1a1818" stroke-linecap="round" stroke-linejoin="round" stroke-width="1.8"/>
  </g>
</svg>
