<svg id="Group_8555" data-name="Group 8555" xmlns="http://www.w3.org/2000/svg" width="46" height="46" viewBox="0 0 46 46">
  <path id="Path_2243" data-name="Path 2243" d="M0,0H46V46H0Z" fill="none"/>
  <ellipse id="Ellipse_437" data-name="Ellipse 437" cx="9.5" cy="5.5" rx="9.5" ry="5.5" transform="translate(21 6)" fill="none" stroke="#39a783" stroke-linecap="round" stroke-linejoin="round" stroke-width="2"/>
  <path id="Path_2244" data-name="Path 2244" d="M11,6v7.667c0,3.176,4.291,5.75,9.583,5.75s9.583-2.574,9.583-5.75V6" transform="translate(10.083 5.5)" fill="none" stroke="#39a783" stroke-linecap="round" stroke-linejoin="round" stroke-width="2"/>
  <path id="Path_2245" data-name="Path 2245" d="M11,10v7.667c0,3.176,4.291,5.75,9.583,5.75s9.583-2.574,9.583-5.75V10" transform="translate(10.083 9.167)" fill="none" stroke="#39a783" stroke-linecap="round" stroke-linejoin="round" stroke-width="2"/>
  <path id="Path_2246" data-name="Path 2246" d="M11,14v7.667c0,3.176,4.291,5.75,9.583,5.75s9.583-2.574,9.583-5.75V14" transform="translate(10.083 12.833)" fill="none" stroke="#39a783" stroke-linecap="round" stroke-linejoin="round" stroke-width="2"/>
  <path id="Path_2247" data-name="Path 2247" d="M10.667,9H5.875a2.875,2.875,0,0,0,0,5.75H7.792a2.875,2.875,0,1,1,0,5.75H3" transform="translate(2.75 8.25)" fill="none" stroke="#39a783" stroke-linecap="round" stroke-linejoin="round" stroke-width="2"/>
  <path id="Path_2248" data-name="Path 2248" d="M5,21.417v1.917M5,8V9.917" transform="translate(4.583 7.333)" fill="none" stroke="#39a783" stroke-linecap="round" stroke-linejoin="round" stroke-width="2"/>
</svg>
