<svg xmlns="http://www.w3.org/2000/svg" width="62" height="57" viewBox="0 0 62 57">
  <g id="Check_mark2" transform="translate(0 0)">
    <g id="Group" transform="translate(0 0)">
      <path id="Fill-4" d="M329.213,43.475a2.856,2.856,0,0,1-2.515-1.5A32.137,32.137,0,0,0,314.531,29.1a2.855,2.855,0,1,1,2.793-4.98,35.813,35.813,0,0,1,11.458,10.418C335.528,20.371,345.43,8.409,357.05.5a2.855,2.855,0,0,1,3.214,4.72c-12.047,8.2-22.136,21.163-28.408,36.486a2.855,2.855,0,0,1-2.494,1.77q-.075,0-.149,0" transform="translate(-299.512 0)" fill="#4ecca3" fill-rule="evenodd"/>
      <path id="Fill-5" d="M27,140.513a26.741,26.741,0,1,1,0-53.48,27.264,27.264,0,0,1,12.74,3.159,2.861,2.861,0,0,1,1.187,3.892A2.917,2.917,0,0,1,37,95.26a21.393,21.393,0,0,0-10-2.477,20.99,20.99,0,1,0,21.193,20.989,20.744,20.744,0,0,0-.772-5.626,2.872,2.872,0,0,1,2.017-3.542,2.907,2.907,0,0,1,3.576,2,26.458,26.458,0,0,1,.986,7.17,26.9,26.9,0,0,1-27,26.74" transform="translate(0 -83.513)" fill="#4ecca3" fill-rule="evenodd"/>
    </g>
  </g>
</svg>
