<svg xmlns="http://www.w3.org/2000/svg" width="30.087" height="30.085" viewBox="0 0 30.087 30.085">
  <g id="modern-house" transform="translate(0 -0.01)">
    <path id="Path_1034" data-name="Path 1034" d="M332,129.308h5.289v-5.1L332,125.531Z" transform="translate(-312.491 -116.901)" fill="#bdcccb"/>
    <path id="Path_1035" data-name="Path 1035" d="M28.958.044,11.212,5.332a.881.881,0,0,0,.494,1.692l2.4-.72v4.34H.881A.881.881,0,0,0,0,11.526v5.289a.881.881,0,0,0,.881.881H30.087V.89a.845.845,0,0,0-.353-.705.878.878,0,0,0-.776-.141ZM3.526,15.933H1.763V12.408H3.526Zm3.526,0H5.289V12.408H7.052Zm3.526,0H8.814V12.408h1.763Zm3.526,0H12.34V12.408H14.1Zm12.458-2.644a.881.881,0,0,1-.881.881H18.628a.881.881,0,0,1-.881-.881V7.942a.881.881,0,0,1,.668-.855l7.052-1.763a.881.881,0,0,1,1.095.855v7.11Z" transform="translate(0 0)" fill="#bdcccb"/>
    <path id="Path_1036" data-name="Path 1036" d="M362,330.99h1.763v10.636H362Z" transform="translate(-340.728 -311.531)" fill="#bdcccb"/>
    <path id="Path_1037" data-name="Path 1037" d="M422,330.99h1.763v10.636H422Z" transform="translate(-397.202 -311.531)" fill="#bdcccb"/>
    <path id="Path_1038" data-name="Path 1038" d="M3.526,339.863H.881a.881.881,0,0,0,0,1.763h6.17v-7.992a.881.881,0,0,1,.881-.881h7.052a.881.881,0,0,1,.881.881v7.992h3.643V330.99H3.526Z" transform="translate(0 -311.531)" fill="#bdcccb"/>
    <path id="Path_1039" data-name="Path 1039" d="M482,341.454h.881a.873.873,0,0,0,.881-.881v-9.755H482Z" transform="translate(-453.676 -311.358)" fill="#bdcccb"/>
    <path id="Path_1040" data-name="Path 1040" d="M154.407,392.753h.881V390.99H150v7.11h5.289v-3.585h-.881a.881.881,0,0,1,0-1.763Z" transform="translate(-141.186 -368.005)" fill="#bdcccb"/>
  </g>
</svg>
