<svg xmlns="http://www.w3.org/2000/svg" width="104.629" height="100.27" viewBox="0 0 104.629 100.27">
  <g id="Vector:_Green_Email" data-name="Vector: Green Email" transform="translate(-0.773 -0.204)">
    <g id="_330" data-name="330" transform="translate(0.773 0.204)">
      <g id="Group" transform="translate(0 0)">
        <path id="Fill-4" d="M94.71,81.652H50.845L23.824,99.917a2.037,2.037,0,0,1-3.178-1.686V81.652H9.919A9.916,9.916,0,0,1,0,71.739V9.913A9.916,9.916,0,0,1,9.919,0H94.71a9.916,9.916,0,0,1,9.919,9.913V71.739a9.916,9.916,0,0,1-9.919,9.913" fill="#fafafa" fill-rule="evenodd"/>
        <path id="Fill-5" d="M160.577,152.115H100.118a7.269,7.269,0,0,1-7.281-7.255V107.922a7.269,7.269,0,0,1,7.281-7.255h60.458a7.268,7.268,0,0,1,7.281,7.255v36.937a7.268,7.268,0,0,1-7.281,7.255" transform="translate(-78.033 -84.551)" fill="#39a783" fill-rule="evenodd"/>
        <path id="Fill-6" d="M134.915,130.178,96.941,105.172l-.529.283-.57.373-.514.411-.505.478-.461.542-.415.608-.214.359-.159.306-.14.3-.215.558-.228.839-.152,1.1v37.541l.066.765.155.8.219.71.273.646.18.349.31.512.171.247.287.371.271.309.475.468.448.372.408.29.316.2.234.132.29.148,37.974-25.005" transform="translate(-78.033 -88.337)" fill="#42b28e" fill-rule="evenodd"/>
        <path id="Fill-7" d="M297.741,130.178l37.975-25.006.529.283.57.373.514.411.505.478.461.542.416.608.214.359.065.124.094.182.141.3.215.558.228.839.152,1.1v37.542l-.066.765-.155.8-.219.71-.273.646-.18.349-.31.512-.171.247-.287.371-.271.309-.475.468-.448.372-.408.29-.316.2-.234.132-.29.148-37.975-25.005" transform="translate(-249.994 -88.337)" fill="#42b28e" fill-rule="evenodd"/>
        <path id="Fill-8" d="M128.281,131.445l-31.158-26.6.278-.532.371-.579.194-.261.278-.335.339-.38.353-.305.314-.26.2-.151.256-.176.316-.2.429-.233.439-.2.372-.144.478-.152.567-.134.721-.1.62-.032h60.714l.6.042.356.047.476.091.416.107.543.18.553.235.377.193.6.371.393.287.268.221.13.115.587.6.45.568.282.426.377.7-31.158,26.6a8.737,8.737,0,0,1-11.339,0" transform="translate(-81.635 -84.568)" fill="#4ecca3" fill-rule="evenodd"/>
      </g>
    </g>
  </g>
</svg>
