<svg id="Group_8428" data-name="Group 8428" xmlns="http://www.w3.org/2000/svg" width="24" height="24" viewBox="0 0 24 24">
  <path id="Path_2202" data-name="Path 2202" d="M0,0H24V24H0Z" fill="none"/>
  <path id="Path_2203" data-name="Path 2203" d="M3,17H5.4a5,5,0,0,0,4.1-2.133l.177-.253m3.66-5.227.177-.254A5,5,0,0,1,17.6,7H21" fill="none" stroke="#1a1818" stroke-linecap="round" stroke-linejoin="round" stroke-width="1.2"/>
  <path id="Path_2204" data-name="Path 2204" d="M18,4l3,3-3,3" fill="none" stroke="#1a1818" stroke-linecap="round" stroke-linejoin="round" stroke-width="1.2"/>
  <path id="Path_2205" data-name="Path 2205" d="M3,7H5.4a5,5,0,0,1,4.1,2.133l4.014,5.734A5,5,0,0,0,17.6,17H21" fill="none" stroke="#1a1818" stroke-linecap="round" stroke-linejoin="round" stroke-width="1.2"/>
  <path id="Path_2206" data-name="Path 2206" d="M18,20l3-3-3-3" fill="none" stroke="#1a1818" stroke-linecap="round" stroke-linejoin="round" stroke-width="1.2"/>
</svg>
