<svg xmlns="http://www.w3.org/2000/svg" width="30.098" height="30.098" viewBox="0 0 30.098 30.098">
  <g id="floor" transform="translate(0 0)">
    <path id="Path_1041" data-name="Path 1041" d="M19.475,9.737v4.426a.885.885,0,0,0,1.77,0V9.737H30.1v18.59a1.77,1.77,0,0,1-1.77,1.77H21.245V19.475a.885.885,0,0,0-1.77,0v2.656H15.934a.885.885,0,1,0,0,1.77h3.541v6.2H10.623V23.016a.885.885,0,0,0-1.77,0V30.1H1.77A1.77,1.77,0,0,1,0,28.327V16.819H8.852V17.7a.885.885,0,1,0,1.77,0V14.164a.885.885,0,1,0-1.77,0v.885H0V1.77A1.77,1.77,0,0,1,1.77,0H8.852V8.852a.885.885,0,1,0,1.77,0V0h17.7A1.77,1.77,0,0,1,30.1,1.77v6.2H15.934a.885.885,0,0,0,0,1.77h3.541Z" fill="#bdcccb"/>
  </g>
</svg>
