<svg width="26" height="26" viewBox="0 0 26 26" fill="none" xmlns="http://www.w3.org/2000/svg">
<path d="M25.7471 10.4539H24.7V10.4H13V15.6H20.347C19.2751 18.627 16.3949 20.8 13 20.8C8.69245 20.8 5.2 17.3075 5.2 13C5.2 8.69245 8.69245 5.2 13 5.2C14.9883 5.2 16.7973 5.9501 18.1747 7.17535L21.8517 3.4983C19.5299 1.33445 16.4242 0 13 0C5.82075 0 0 5.82075 0 13C0 20.1792 5.82075 26 13 26C20.1792 26 26 20.1792 26 13C26 12.1283 25.9103 11.2775 25.7471 10.4539Z" fill="#FFC107"/>
<path d="M1.49805 6.94915L5.7692 10.0815C6.9249 7.2202 9.7238 5.2 12.9991 5.2C14.9875 5.2 16.7964 5.9501 18.1738 7.17535L21.8508 3.4983C19.529 1.33445 16.4233 0 12.9991 0C8.00585 0 3.67555 2.81905 1.49805 6.94915Z" fill="#FF3D00"/>
<path d="M12.999 25.9997C16.3569 25.9997 19.408 24.7146 21.7149 22.6249L17.6914 19.2202C16.3862 20.2088 14.7638 20.7997 12.999 20.7997C9.61773 20.7997 6.74668 18.6436 5.66508 15.6348L1.42578 18.901C3.57728 23.1111 7.94658 25.9997 12.999 25.9997Z" fill="#4CAF50"/>
<path d="M25.7471 10.4543H24.7V10.4004H13V15.6004H20.347C19.8322 17.0544 18.8968 18.3083 17.6904 19.2215L17.6923 19.2202L21.7158 22.6249C21.4311 22.8836 26 19.5004 26 13.0004C26 12.1287 25.9103 11.2779 25.7471 10.4543Z" fill="#1976D2"/>
</svg>
