<svg width="26" height="26" viewBox="0 0 26 26" fill="none" xmlns="http://www.w3.org/2000/svg">
<path d="M13.0175 0.0304561C7.59666 0.0304561 6.01142 0.0360216 5.70346 0.061994C4.81518 0.0974158 3.94383 0.316278 3.14424 0.704812C2.58563 0.97524 2.08011 1.34377 1.65176 1.79287C0.823325 2.65813 0.295742 3.76729 0.14721 4.95595C0.00393329 6.22823 -0.034846 7.51012 0.0312618 8.78874C0.0312618 9.823 0.0312618 11.1838 0.0312618 13.0083C0.0312618 18.4254 0.0368273 20.0098 0.0627997 20.3168C0.100533 21.1846 0.311196 22.036 0.682428 22.8213C1.02821 23.5325 1.52403 24.1603 2.13573 24.6615C2.74743 25.1627 3.46049 25.5254 4.22581 25.7246C4.84411 25.8726 5.47608 25.9563 6.1116 25.9741C6.43347 25.9881 9.71156 25.9983 12.9906 25.9983C16.2696 25.9983 19.5505 25.9983 19.864 25.9779C20.5227 25.9653 21.1779 25.8794 21.8175 25.7218C22.584 25.5252 23.2984 25.1636 23.9108 24.6623C24.5231 24.161 25.0186 23.532 25.3627 22.8194C25.7284 22.0483 25.9365 21.212 25.975 20.3595C25.9926 20.1359 26 16.5684 26 13.0065C26 9.44454 25.9917 5.88353 25.974 5.65998C25.9388 4.79751 25.728 3.95129 25.3544 3.17312C25.0804 2.60118 24.703 2.08481 24.2413 1.65002C23.3739 0.824738 22.2652 0.298792 21.0773 0.149187C19.8054 0.00488307 18.5238 -0.0348272 17.2454 0.0304561H13.0175Z" fill="url(#paint0_radial_57_888)"/>
<path d="M13.0175 0.0304561C7.59666 0.0304561 6.01142 0.0360216 5.70346 0.061994C4.81518 0.0974158 3.94383 0.316278 3.14424 0.704812C2.58563 0.97524 2.08011 1.34377 1.65176 1.79287C0.823325 2.65813 0.295742 3.76729 0.14721 4.95595C0.00393329 6.22823 -0.034846 7.51012 0.0312618 8.78874C0.0312618 9.823 0.0312618 11.1838 0.0312618 13.0083C0.0312618 18.4254 0.0368273 20.0098 0.0627997 20.3168C0.100533 21.1846 0.311196 22.036 0.682428 22.8213C1.02821 23.5325 1.52403 24.1603 2.13573 24.6615C2.74743 25.1627 3.46049 25.5254 4.22581 25.7246C4.84411 25.8726 5.47608 25.9563 6.1116 25.9741C6.43347 25.9881 9.71156 25.9983 12.9906 25.9983C16.2696 25.9983 19.5505 25.9983 19.864 25.9779C20.5227 25.9653 21.1779 25.8794 21.8175 25.7218C22.584 25.5252 23.2984 25.1636 23.9108 24.6623C24.5231 24.161 25.0186 23.532 25.3627 22.8194C25.7284 22.0483 25.9365 21.212 25.975 20.3595C25.9926 20.1359 26 16.5684 26 13.0065C26 9.44454 25.9917 5.88353 25.974 5.65998C25.9388 4.79751 25.728 3.95129 25.3544 3.17312C25.0804 2.60118 24.703 2.08481 24.2413 1.65002C23.3739 0.824738 22.2652 0.298792 21.0773 0.149187C19.8054 0.00488307 18.5238 -0.0348272 17.2454 0.0304561H13.0175Z" fill="url(#paint1_radial_57_888)"/>
<path d="M13.0137 3.47461C10.423 3.47461 10.0983 3.48574 9.08075 3.53212C8.28823 3.54754 7.50409 3.69747 6.76178 3.97551C6.12814 4.22056 5.55266 4.59523 5.07219 5.07554C4.59173 5.55585 4.21686 6.13121 3.9716 6.76476C3.69295 7.5069 3.54301 8.29115 3.52821 9.08373C3.48276 10.1041 3.4707 10.4269 3.4707 13.0167C3.4707 15.6065 3.48183 15.9312 3.52821 16.9487C3.54383 17.7412 3.69375 18.5254 3.9716 19.2677C4.21675 19.9013 4.59146 20.4767 5.07176 20.9572C5.55205 21.4376 6.12736 21.8125 6.76085 22.0579C7.5032 22.3358 8.28732 22.4857 9.07982 22.5013C10.1002 22.5477 10.422 22.5588 13.0128 22.5588C15.6035 22.5588 15.9273 22.5477 16.9448 22.5013C17.7373 22.4857 18.5214 22.3357 19.2638 22.0579C19.8971 21.8122 20.4722 21.4372 20.9525 20.9568C21.4327 20.4763 21.8076 19.9011 22.0531 19.2677C22.3298 18.525 22.4797 17.7411 22.4964 16.9487C22.5419 15.9284 22.554 15.6065 22.554 13.0167C22.554 10.4269 22.5419 10.1013 22.4964 9.08373C22.4797 8.29135 22.3298 7.50742 22.0531 6.76476C21.8078 6.13123 21.4329 5.5559 20.9524 5.0756C20.4719 4.5953 19.8965 4.22061 19.2629 3.97551C18.5205 3.69789 17.7364 3.54797 16.9439 3.53212C15.9236 3.48574 15.6026 3.47461 13.0109 3.47461H13.0137ZM12.1585 5.19343H13.0137C15.5609 5.19343 15.8623 5.20271 16.8678 5.24816C17.4725 5.25541 18.0715 5.36648 18.6386 5.57652C19.05 5.73529 19.4237 5.97841 19.7355 6.29025C20.0474 6.60209 20.2905 6.97574 20.4493 7.38717C20.6595 7.95422 20.7706 8.55322 20.7776 9.15794C20.8231 10.1634 20.8333 10.4658 20.8333 13.0111C20.8333 15.5564 20.8231 15.8588 20.7776 16.8643C20.7705 17.469 20.6594 18.068 20.4493 18.6351C20.2902 19.046 20.0471 19.4192 19.7355 19.7307C19.4238 20.0421 19.0505 20.2851 18.6395 20.4439C18.0725 20.6543 17.4735 20.7654 16.8688 20.7723C15.8633 20.8177 15.5609 20.8279 13.0146 20.8279C10.4684 20.8279 10.166 20.8177 9.16052 20.7723C8.55578 20.7646 7.95684 20.6532 7.38976 20.443C6.97841 20.2843 6.60482 20.0413 6.29299 19.7296C5.98115 19.418 5.73798 19.0445 5.57911 18.6332C5.36887 18.0662 5.2578 17.4672 5.25074 16.8625C5.20529 15.857 5.19602 15.5546 5.19602 13.0074C5.19602 10.4603 5.20529 10.1597 5.25074 9.15423C5.258 8.54952 5.36907 7.95056 5.57911 7.38346C5.73793 6.97206 5.98106 6.59843 6.2929 6.2866C6.60473 5.97477 6.97835 5.73163 7.38976 5.57281C7.95674 5.36224 8.55574 5.25085 9.16052 5.24352C10.0408 5.20363 10.3812 5.19157 12.1594 5.18972L12.1585 5.19343ZM18.1062 6.77682C17.8798 6.77682 17.6585 6.84395 17.4702 6.96973C17.282 7.0955 17.1353 7.27427 17.0487 7.48343C16.962 7.69258 16.9394 7.92273 16.9835 8.14477C17.0277 8.36681 17.1367 8.57077 17.2968 8.73085C17.4569 8.89093 17.6608 8.99995 17.8829 9.04411C18.1049 9.08828 18.3351 9.06561 18.5442 8.97897C18.7534 8.89234 18.9321 8.74563 19.0579 8.55739C19.1837 8.36916 19.2508 8.14785 19.2508 7.92146C19.2508 7.77115 19.2212 7.6223 19.1637 7.48343C19.1062 7.34455 19.0218 7.21837 18.9156 7.11208C18.8093 7.00579 18.6831 6.92147 18.5442 6.86395C18.4053 6.80643 18.2565 6.77682 18.1062 6.77682ZM13.0137 8.11255C12.0451 8.11255 11.0982 8.39977 10.2928 8.93789C9.48743 9.47601 8.85968 10.2409 8.48896 11.1357C8.11824 12.0306 8.0212 13.0153 8.2101 13.9654C8.399 14.9154 8.86537 15.7881 9.55022 16.4731C10.2351 17.158 11.1077 17.6246 12.0577 17.8136C13.0077 18.0027 13.9924 17.9059 14.8873 17.5353C15.7823 17.1648 16.5473 16.5372 17.0855 15.7319C17.6238 14.9266 17.9112 13.9798 17.9114 13.0111C17.9114 11.7121 17.3954 10.4663 16.4769 9.54764C15.5585 8.629 14.3127 8.11279 13.0137 8.11255ZM13.0137 9.83137C13.6426 9.83137 14.2574 10.0179 14.7803 10.3673C15.3032 10.7167 15.7108 11.2133 15.9514 11.7943C16.1921 12.3753 16.2551 13.0147 16.1324 13.6315C16.0097 14.2483 15.7069 14.8149 15.2622 15.2596C14.8175 15.7043 14.2509 16.0071 13.6341 16.1298C13.0173 16.2525 12.3779 16.1895 11.7969 15.9489C11.2158 15.7082 10.7192 15.3006 10.3698 14.7777C10.0204 14.2548 9.83395 13.64 9.83395 13.0111C9.83444 12.1681 10.1697 11.3598 10.7659 10.7639C11.3622 10.168 12.1707 9.83322 13.0137 9.83322V9.83137Z" fill="white"/>
<defs>
<radialGradient id="paint0_radial_57_888" cx="0" cy="0" r="1" gradientUnits="userSpaceOnUse" gradientTransform="translate(23.3364 -1.59857) rotate(-90) scale(25.766 23.9608)">
<stop stop-color="#FFDD55"/>
<stop offset="0.1" stop-color="#FFDD55"/>
<stop offset="0.5" stop-color="#FF543E"/>
<stop offset="1" stop-color="#C837AB"/>
</radialGradient>
<radialGradient id="paint1_radial_57_888" cx="0" cy="0" r="1" gradientUnits="userSpaceOnUse" gradientTransform="translate(6.22789 -3.1851) rotate(78.7013) scale(11.5225 47.4759)">
<stop stop-color="#3771C8"/>
<stop offset="0.128" stop-color="#3771C8"/>
<stop offset="1" stop-color="#6600FF" stop-opacity="0"/>
</radialGradient>
</defs>
</svg>
