<svg xmlns="http://www.w3.org/2000/svg" width="63" height="55" viewBox="0 0 63 55">
  <g id="Group_8690" data-name="Group 8690" transform="translate(0 0)">
    <path id="Path_1980" data-name="Path 1980" d="M6.836,55h49.47a6.666,6.666,0,0,0,4.75-1.98A6.733,6.733,0,0,0,63,48.236V31.1a6.761,6.761,0,0,0-6.695-6.834H54.24L36.082,7.189a5,5,0,1,0-9.023,0L8.9,24.263H6.836A6.881,6.881,0,0,0,0,31.1V48.236A6.82,6.82,0,0,0,6.836,55ZM31.57,2.272a2.762,2.762,0,1,1-2.748,2.762A2.755,2.755,0,0,1,31.57,2.272Zm-3.1,6.69a4.93,4.93,0,0,0,6.194,0L50.941,24.263H12.2ZM60.745,48.2a4.522,4.522,0,0,1-4.51,4.533H6.765A4.522,4.522,0,0,1,2.255,48.2V31.062a4.522,4.522,0,0,1,4.51-4.533h49.47a4.522,4.522,0,0,1,4.51,4.533Zm0,0" fill="#39a783"/>
    <path id="Path_1981" data-name="Path 1981" d="M99.057,252.671c.551,0,1.06-.226,1.06-.679v-3.34h1l1.937,3.728a.738.738,0,0,0,.707.393,1.444,1.444,0,0,0,1.386-1.154.483.483,0,0,0-.071-.259l-1.725-3.127a2.82,2.82,0,0,0,1.711-2.894c0-2.3-1.541-3.05-3.479-3.05H98.661A.684.684,0,0,0,98,243v8.992C98,252.445,98.506,252.671,99.057,252.671Zm1.06-8.4h1.47c.792,0,1.273.353,1.273,1.343s-.481,1.343-1.273,1.343h-1.47Zm0,0" transform="translate(-84.19 -207.955)" fill="#39a783"/>
    <path id="Path_1982" data-name="Path 1982" d="M167,252.611h5.033c.467,0,.664-.452.664-.9,0-.523-.24-.933-.664-.933h-3.775v-2.4h2.107c.467,0,.665-.452.665-.834,0-.452-.241-.863-.665-.863h-2.107v-2.4h3.775c.424,0,.664-.48.664-1,0-.453-.2-.976-.664-.976H167c-.481,0-1,.272-1,.724v8.979C166,252.445,166.523,252.611,167,252.611Zm0,0" transform="translate(-142.613 -207.956)" fill="#39a783"/>
    <path id="Path_1983" data-name="Path 1983" d="M231.131,252.949c.551,0,1.131-.227,1.131-.679v-4.807l2.672,4.892a1.193,1.193,0,0,0,1.2.594c.552,0,1.075-.227,1.075-.679v-8.992c0-.467-.509-.665-1.06-.665s-1.061.2-1.061.665v4.807l-2.312-4.369c-.537-1.032-.859-1.1-1.65-1.1-.552,0-1.128.212-1.128.679v8.979C230,252.723,230.58,252.949,231.131,252.949Zm0,0" transform="translate(-197.598 -208.233)" fill="#39a783"/>
    <path id="Path_1984" data-name="Path 1984" d="M298.164,244.269h1.951v7.724c0,.452.58.679,1.131.679s1.131-.226,1.131-.679v-7.724h1.894c.424,0,.665-.467.665-1,0-.467-.2-.976-.665-.976h-6.108c-.467,0-.664.509-.664.976C297.5,243.8,297.74,244.269,298.164,244.269Zm0,0" transform="translate(-255.589 -207.955)" fill="#39a783"/>
  </g>
</svg>
