<svg xmlns="http://www.w3.org/2000/svg" width="26" height="26" viewBox="0 0 26 26">
  <g id="Group_8280" data-name="Group 8280" transform="translate(-28 -469)">
    <path id="Path_2005" data-name="Path 2005" d="M0,0H26V26H0Z" transform="translate(28 469)" fill="none"/>
    <path id="Path_2006" data-name="Path 2006" d="M3,23H7.449L21.907,8.542a3.146,3.146,0,1,0-4.449-4.449L3,18.551V23" transform="translate(28 469)" fill="none" stroke="#1a1818" stroke-linecap="round" stroke-linejoin="round" stroke-width="1.2"/>
    <line id="Line_282" data-name="Line 282" x2="4" y2="4" transform="translate(43.95 475.05)" fill="none" stroke="#1a1818" stroke-linecap="round" stroke-linejoin="round" stroke-width="1.2"/>
    <path id="Path_2007" data-name="Path 2007" d="M12,8,7,3,3,7l5,5" transform="translate(28 469)" fill="none" stroke="#1a1818" stroke-linecap="round" stroke-linejoin="round" stroke-width="1.2"/>
    <line id="Line_283" data-name="Line 283" x1="1.5" y2="1.5" transform="translate(33.989 477.711)" fill="none" stroke="#1a1818" stroke-linecap="round" stroke-linejoin="round" stroke-width="1.2"/>
    <path id="Path_2008" data-name="Path 2008" d="M16,12l5,5-4,4-5-5" transform="translate(30 471)" fill="none" stroke="#1a1818" stroke-linecap="round" stroke-linejoin="round" stroke-width="1.2"/>
    <line id="Line_284" data-name="Line 284" x1="1.5" y2="1.5" transform="translate(43.789 487.511)" fill="none" stroke="#1a1818" stroke-linecap="round" stroke-linejoin="round" stroke-width="1.2"/>
  </g>
</svg>
