<svg xmlns="http://www.w3.org/2000/svg" width="26" height="26" viewBox="0 0 26 26">
  <g id="Group_8284" data-name="Group 8284" transform="translate(-28 -597)">
    <path id="Path_1145" data-name="Path 1145" d="M0,0H26V26H0Z" transform="translate(28 597)" fill="none"/>
    <path id="Path_1146" data-name="Path 1146" d="M10.493,5.171a2.164,2.164,0,1,1,4.329,0,7.6,7.6,0,0,1,4.329,6.513v3.257A4.343,4.343,0,0,0,21.315,18.2H4a4.343,4.343,0,0,0,2.164-3.257V11.685a7.6,7.6,0,0,1,4.329-6.513" transform="translate(28.342 597.257)" fill="none" stroke="#1a1818" stroke-linecap="round" stroke-linejoin="round" stroke-width="1.2"/>
    <path id="Path_1147" data-name="Path 1147" d="M9,17v1.086a3.257,3.257,0,0,0,6.513,0V17" transform="translate(28.743 598.401)" fill="none" stroke="#1a1818" stroke-linecap="round" stroke-linejoin="round" stroke-width="1.2"/>
  </g>
</svg>
