<svg xmlns="http://www.w3.org/2000/svg" width="30.985" height="30.073" viewBox="0 0 30.985 30.073">
  <path id="apartments" d="M682.428,555.038l-5.9-3.685a.911.911,0,0,0-.966,0l-7.29,4.556a.911.911,0,0,0-.428.773V565.8a.455.455,0,0,0,.46.455h.9a.459.459,0,0,0,.46-.456v-8.608l6.379-3.987,6.379,3.987v9.064h4.1a.459.459,0,0,1,.456.46v.9a.456.456,0,0,1-.456.46H656.456a.459.459,0,0,1-.456-.46v-.9a.456.456,0,0,1,.456-.46h4.1V543.923h21.871ZM660.1,538h22.783a.911.911,0,0,1,.911.911v2.734a.911.911,0,0,1-.911.911H660.1a.911.911,0,0,1-.911-.911v-2.734A.911.911,0,0,1,660.1,538Zm15.948,19.138a.911.911,0,1,0-.911-.911A.911.911,0,0,0,676.049,557.138Zm-12.3-11.391a.459.459,0,0,0-.46.454v2.737a.455.455,0,0,0,.46.454h.9a.459.459,0,0,0,.46-.454V546.2a.455.455,0,0,0-.46-.454Zm0,6.379a.459.459,0,0,0-.46.454v2.737a.455.455,0,0,0,.46.454h.9a.459.459,0,0,0,.46-.454V552.58a.455.455,0,0,0-.46-.454Zm7.291-6.379a.459.459,0,0,0-.46.454v2.737a.455.455,0,0,0,.46.454h.9a.459.459,0,0,0,.46-.454V546.2a.455.455,0,0,0-.46-.454Zm7.291,0a.459.459,0,0,0-.46.454v2.737a.455.455,0,0,0,.46.454h.9a.459.459,0,0,0,.46-.454V546.2a.455.455,0,0,0-.46-.454ZM663.75,558.5a.459.459,0,0,0-.46.454V561.7a.455.455,0,0,0,.46.454h.9a.459.459,0,0,0,.46-.454v-2.737a.455.455,0,0,0-.46-.454Zm14.121,1.823V565.8a.455.455,0,0,0,.46.455h.9a.459.459,0,0,0,.46-.459v-6.376a.911.911,0,0,0-.911-.911h-5.468a.911.911,0,0,0-.911.911v6.376a.457.457,0,0,0,.46.459h.9a.458.458,0,0,0,.46-.455v-5.469Z" transform="translate(-656 -538)" fill="#bdcccb" fill-rule="evenodd"/>
</svg>
