<svg id="Group_8526" data-name="Group 8526" xmlns="http://www.w3.org/2000/svg" width="24" height="24" viewBox="0 0 24 24">
  <path id="Path_2234" data-name="Path 2234" d="M0,0H24V24H0Z" fill="none"/>
  <path id="Path_2235" data-name="Path 2235" d="M17,17h2a2,2,0,0,0,2-2V11a2,2,0,0,0-2-2H5a2,2,0,0,0-2,2v4a2,2,0,0,0,2,2H7" fill="none" stroke="#39a783" stroke-linecap="round" stroke-linejoin="round" stroke-width="1.5"/>
  <path id="Path_2236" data-name="Path 2236" d="M17,9V5a2,2,0,0,0-2-2H9A2,2,0,0,0,7,5V9" fill="none" stroke="#39a783" stroke-linecap="round" stroke-linejoin="round" stroke-width="1.5"/>
  <rect id="Rectangle_2432" data-name="Rectangle 2432" width="10" height="8" rx="2" transform="translate(7 13)" fill="none" stroke="#39a783" stroke-linecap="round" stroke-linejoin="round" stroke-width="1.5"/>
</svg>
