<svg xmlns="http://www.w3.org/2000/svg" width="26" height="26" viewBox="0 0 26 26">
  <g id="Group_8282" data-name="Group 8282" transform="translate(-30 -533)">
    <path id="Path_1994" data-name="Path 1994" d="M0,0H26V26H0Z" transform="translate(30 533)" fill="none"/>
    <path id="Path_1995" data-name="Path 1995" d="M17.8,19.817l-2.172,1.138a.392.392,0,0,1-.568-.41l.415-2.411-1.757-1.707a.389.389,0,0,1,.217-.665l2.428-.352,1.086-2.193a.392.392,0,0,1,.7,0l1.086,2.193,2.428.352a.39.39,0,0,1,.217.665l-1.757,1.707.414,2.41a.39.39,0,0,1-.567.411Z" transform="translate(32 535)" fill="none" stroke="#1a1818" stroke-linecap="round" stroke-linejoin="round" stroke-width="1.1"/>
    <path id="Path_1996" data-name="Path 1996" d="M6.2,19.817,4.028,20.955a.392.392,0,0,1-.568-.41l.415-2.411L2.118,16.427a.389.389,0,0,1,.217-.665l2.428-.352,1.086-2.193a.392.392,0,0,1,.7,0L7.637,15.41l2.428.352a.39.39,0,0,1,.217.665L8.525,18.134l.414,2.41a.39.39,0,0,1-.567.411L6.2,19.817Z" transform="translate(30 535)" fill="none" stroke="#1a1818" stroke-linecap="round" stroke-linejoin="round" stroke-width="1.1"/>
    <path id="Path_1997" data-name="Path 1997" d="M12,9.817,9.828,10.955a.392.392,0,0,1-.568-.41l.415-2.411L7.918,6.427a.389.389,0,0,1,.217-.665l2.428-.352,1.086-2.193a.392.392,0,0,1,.7,0L13.437,5.41l2.428.352a.39.39,0,0,1,.217.665L14.325,8.134l.414,2.41a.39.39,0,0,1-.567.411L12,9.817Z" transform="translate(31 533)" fill="none" stroke="#1a1818" stroke-linecap="round" stroke-linejoin="round" stroke-width="1.1"/>
  </g>
</svg>
