<svg xmlns="http://www.w3.org/2000/svg" width="35" height="40" viewBox="0 0 35 40">
  <g id="pdf_3_" data-name="pdf (3)" transform="translate(-32)">
    <path id="Path_1966" data-name="Path 1966" d="M98.5,0A2.508,2.508,0,0,0,96,2.5v35A2.508,2.508,0,0,0,98.5,40h25.013a2.508,2.508,0,0,0,2.5-2.5V10L116.011,0Z" transform="translate(-59.016)" fill="#e2e5e7"/>
    <path id="Path_1967" data-name="Path 1967" d="M354.492,9.968h7.476L352,0V7.476A2.5,2.5,0,0,0,354.492,9.968Z" transform="translate(-294.968)" fill="#b0b7bd"/>
    <path id="Path_1968" data-name="Path 1968" d="M391.476,135.476,384,128h7.476Z" transform="translate(-324.476 -117.993)" fill="#cad1d8"/>
    <path id="Path_1969" data-name="Path 1969" d="M62.016,253.706a1.252,1.252,0,0,1-1.251,1.246H33.251A1.252,1.252,0,0,1,32,253.706v-12.46A1.252,1.252,0,0,1,33.251,240H60.765a1.252,1.252,0,0,1,1.251,1.246Z" transform="translate(0 -221.214)" fill="#ed5b6e"/>
    <g id="Group_7855" data-name="Group 7855" transform="translate(37.47 23.009)">
      <path id="Path_1970" data-name="Path 1970" d="M101.744,295.008a.686.686,0,0,1,.677-.688h2.3a2.491,2.491,0,0,1,0,4.982h-1.663v1.316a.625.625,0,0,1-.638.687.671.671,0,0,1-.677-.687Zm1.315.567v2.482h1.663a1.242,1.242,0,0,0,0-2.482Z" transform="translate(-101.744 -294.32)" fill="#fff"/>
      <path id="Path_1971" data-name="Path 1971" d="M188.512,302.366a.624.624,0,0,1-.688-.617v-5.66a.678.678,0,0,1,.688-.618h2.282c4.553,0,4.453,6.894.09,6.894Zm.628-5.678v4.463h1.654c2.69,0,2.81-4.463,0-4.463Z" transform="translate(-181.12 -295.382)" fill="#fff"/>
      <path id="Path_1972" data-name="Path 1972" d="M288.439,296.753v1.584h2.541a.771.771,0,0,1,.718.707.692.692,0,0,1-.718.6h-2.541v2.092a.59.59,0,0,1-.6.617.633.633,0,0,1-.706-.617v-5.66a.63.63,0,0,1,.706-.618h3.5a.621.621,0,0,1,.7.618.688.688,0,0,1-.7.678h-2.9Z" transform="translate(-272.698 -295.368)" fill="#fff"/>
    </g>
    <path id="Path_1973" data-name="Path 1973" d="M119.78,417.246H96v1.246h23.78a1.253,1.253,0,0,0,1.252-1.246V416A1.253,1.253,0,0,1,119.78,417.246Z" transform="translate(-59.016 -383.476)" fill="#cad1d8"/>
  </g>
</svg>
