<svg id="Group_7903" data-name="Group 7903" xmlns="http://www.w3.org/2000/svg" width="52.063" height="52.063" viewBox="0 0 52.063 52.063">
  <path id="Path_2009" data-name="Path 2009" d="M0,0H52.063V52.063H0Z" fill="none"/>
  <path id="Path_2010" data-name="Path 2010" d="M33.862,26.862l-6.508-6.508H12.169A2.169,2.169,0,0,1,10,18.185V5.169A2.169,2.169,0,0,1,12.169,3H31.693a2.169,2.169,0,0,1,2.169,2.169V26.862" transform="translate(11.693 3.508)" fill="none" stroke="#39a783" stroke-linecap="round" stroke-linejoin="round" stroke-width="2"/>
  <path id="Path_2011" data-name="Path 2011" d="M26.862,20.846v4.339a2.169,2.169,0,0,1-2.169,2.169H9.508L3,33.862V12.169A2.169,2.169,0,0,1,5.169,10H9.508" transform="translate(3.508 11.693)" fill="none" stroke="#39a783" stroke-linecap="round" stroke-linejoin="round" stroke-width="2"/>
</svg>
