<svg id="Group_7873" data-name="Group 7873" xmlns="http://www.w3.org/2000/svg" width="51.377" height="51.377" viewBox="0 0 51.377 51.377">
  <path id="Path_1994" data-name="Path 1994" d="M0,0H51.377V51.377H0Z" fill="none"/>
  <path id="Path_1995" data-name="Path 1995" d="M22.592,27.594l-4.65,2.436a.839.839,0,0,1-1.216-.878l.888-5.161-3.761-3.654a.833.833,0,0,1,.465-1.424l5.2-.754,2.325-4.695a.839.839,0,0,1,1.5,0l2.325,4.695,5.2.754a.835.835,0,0,1,.465,1.424l-3.761,3.654.886,5.159a.835.835,0,0,1-1.214.88Z" transform="translate(15.513 14.829)" fill="none" stroke="#39a783" stroke-linecap="round" stroke-linejoin="round" stroke-width="2"/>
  <path id="Path_1996" data-name="Path 1996" d="M10.992,27.594,6.342,30.03a.839.839,0,0,1-1.216-.878l.888-5.161L2.253,20.337a.833.833,0,0,1,.465-1.424l5.2-.754,2.325-4.695a.839.839,0,0,1,1.5,0l2.325,4.695,5.2.754a.835.835,0,0,1,.465,1.424l-3.761,3.654.886,5.159a.835.835,0,0,1-1.214.88l-4.65-2.436Z" transform="translate(2.281 14.829)" fill="none" stroke="#39a783" stroke-linecap="round" stroke-linejoin="round" stroke-width="2"/>
  <path id="Path_1997" data-name="Path 1997" d="M16.792,17.594l-4.65,2.436a.839.839,0,0,1-1.216-.878l.888-5.161L8.053,10.337a.833.833,0,0,1,.465-1.424l5.2-.754L16.04,3.465a.839.839,0,0,1,1.5,0L19.868,8.16l5.2.754a.835.835,0,0,1,.465,1.424l-3.761,3.654.886,5.159a.835.835,0,0,1-1.214.88l-4.65-2.436Z" transform="translate(8.897 3.422)" fill="none" stroke="#39a783" stroke-linecap="round" stroke-linejoin="round" stroke-width="2"/>
</svg>
