<svg xmlns="http://www.w3.org/2000/svg" width="20.55" height="20.55" viewBox="0 0 20.55 20.55">
  <g id="Group_8245" data-name="Group 8245" transform="translate(-2.225 -2.225)">
    <path id="Path_2166" data-name="Path 2166" d="M10.63,4.372a1.8,1.8,0,0,1,3.49,0,1.8,1.8,0,0,0,2.68,1.11,1.8,1.8,0,0,1,2.469,2.469,1.8,1.8,0,0,0,1.109,2.679,1.8,1.8,0,0,1,0,3.49,1.8,1.8,0,0,0-1.11,2.68A1.8,1.8,0,0,1,16.8,19.269a1.8,1.8,0,0,0-2.679,1.109,1.8,1.8,0,0,1-3.49,0,1.8,1.8,0,0,0-2.68-1.11A1.8,1.8,0,0,1,5.481,16.8,1.8,1.8,0,0,0,4.372,14.12a1.8,1.8,0,0,1,0-3.49,1.8,1.8,0,0,0,1.11-2.68A1.8,1.8,0,0,1,7.951,5.481,1.794,1.794,0,0,0,10.63,4.372Z" transform="translate(0.125 0.125)" fill="none" stroke="#1a1818" stroke-linecap="round" stroke-linejoin="round" stroke-width="1.8"/>
    <circle id="Ellipse_425" data-name="Ellipse 425" cx="3.5" cy="3.5" r="3.5" transform="translate(9 9)" fill="none" stroke="#1a1818" stroke-linecap="round" stroke-linejoin="round" stroke-width="1.8"/>
  </g>
</svg>
