<svg id="Group_8554" data-name="Group 8554" xmlns="http://www.w3.org/2000/svg" width="52" height="52" viewBox="0 0 52 52">
  <path id="Path_2238" data-name="Path 2238" d="M0,0H52V52H0Z" fill="none"/>
  <path id="Path_2239" data-name="Path 2239" d="M7.333,11a4.333,4.333,0,0,1,4.333,4.333v4.333H33.333V15.333a4.333,4.333,0,0,1,8.667,0V24a4.333,4.333,0,0,1-4.333,4.333H7.333A4.333,4.333,0,0,1,3,24V15.333A4.333,4.333,0,0,1,7.333,11Z" transform="translate(3.5 12.833)" fill="none" stroke="#39a783" stroke-linecap="round" stroke-linejoin="round" stroke-width="2"/>
  <path id="Path_2240" data-name="Path 2240" d="M5,20.333V9.5A6.5,6.5,0,0,1,11.5,3H28.833a6.5,6.5,0,0,1,6.5,6.5V20.333" transform="translate(5.833 3.5)" fill="none" stroke="#39a783" stroke-linecap="round" stroke-linejoin="round" stroke-width="2"/>
  <path id="Path_2241" data-name="Path 2241" d="M6,19v4.333" transform="translate(7 22.167)" fill="none" stroke="#39a783" stroke-linecap="round" stroke-linejoin="round" stroke-width="2"/>
  <path id="Path_2242" data-name="Path 2242" d="M18,19v4.333" transform="translate(21 22.167)" fill="none" stroke="#39a783" stroke-linecap="round" stroke-linejoin="round" stroke-width="2"/>
</svg>
