<svg id="Group_7869" data-name="Group 7869" xmlns="http://www.w3.org/2000/svg" width="56.038" height="55" viewBox="0 0 56.038 55">
  <path id="Path_1987" data-name="Path 1987" d="M74.7,52.883l4.21,1.13a1.263,1.263,0,0,0,.7-.014l22.865-7.14a12.37,12.37,0,0,0,6.688,3.673c1.13,4.769,4.245,6.782,7.2,6.782a5.93,5.93,0,0,0,1.993-.337c3.185-1.138,4.378-5.378,2.715-9.652-.09-.232-.188-.452-.289-.667a11.222,11.222,0,0,0,2.282-11.119,12.235,12.235,0,0,0-23.6,2.481l-.96.3a1.215,1.215,0,0,0-.576.385l-2.207,2.681L92.3,40.466a1.243,1.243,0,0,0-1.279.4l-2.207,2.681-3.432-.921a1.244,1.244,0,0,0-1.279.4L82.01,45.567l-2.171-1.058a1.261,1.261,0,0,0-.925-.069l-2.306.72a1.189,1.189,0,0,0-.772.73l-1.956,5.5a1.118,1.118,0,0,0,.075.916,1.2,1.2,0,0,0,.746.578ZM117.517,54.8a3.83,3.83,0,0,1-3.083-.311,6.023,6.023,0,0,1-2.7-3.73,12.513,12.513,0,0,0,7.166-2.375C119.921,51.255,119.314,54.157,117.517,54.8ZM77.936,47.19l1.252-.391L81.8,48.07a1.247,1.247,0,0,0,1.5-.316l2.207-2.681,3.432.921a1.244,1.244,0,0,0,1.279-.4l2.207-2.681,3.431.921a1.244,1.244,0,0,0,1.279-.4l2.48-3.013,1.4-.436a1.169,1.169,0,0,0,.836-1.076,9.534,9.534,0,0,1,9.7-9.069,9.647,9.647,0,0,1,9.221,6.419,8.949,8.949,0,0,1-1.34,8.3,9.214,9.214,0,0,0-4.005-2.632,4.489,4.489,0,0,0,.734-4.228,4.892,4.892,0,0,0-6.114-2.979,4.615,4.615,0,0,0-3.109,5.86,4.872,4.872,0,0,0,5.686,3.092,7.455,7.455,0,0,1,5.138,2.611A9.991,9.991,0,0,1,103.848,44.8a1.244,1.244,0,0,0-1.337-.4l-23.3,7.276-2.622-.7Zm33.607-5.726a2.412,2.412,0,0,1-2.305-1.6,2.308,2.308,0,0,1,1.554-2.93,2.445,2.445,0,0,1,3.057,1.49A2.487,2.487,0,0,1,111.543,41.464Z" transform="translate(-68.005 -27.516)" fill="#39a783"/>
  <path id="Path_1988" data-name="Path 1988" d="M79.84,283.452a3.823,3.823,0,0,0-2.881-3,6.762,6.762,0,0,0-2.753.058,3.845,3.845,0,0,0-1.17.232c-10.76,2.7-14.795,3.266-16.285,3.266a2.093,2.093,0,0,1-.458-.031c-2.062-.641-4.942-1.224-5.905-1.961a6.492,6.492,0,0,1,2.388.285,14.44,14.44,0,0,0,4.063.539c3.676,0,7.24-1.144,8.868-2.846a3.487,3.487,0,0,0,1.064-2.735c-.067-.784-.51-1.8-2.238-2.2-2.761-.642-8.211.455-11.389-2.223a17.464,17.464,0,0,0-11.523-4.26,20.612,20.612,0,0,0-7.122,1.309,3.555,3.555,0,0,0-3.383-2.363H27.374a3.5,3.5,0,0,0-3.56,3.428v15.222a3.5,3.5,0,0,0,3.56,3.428h3.741A3.556,3.556,0,0,0,34.5,287.24l9.33,3.93a20.558,20.558,0,0,0,8.536,1.56c10.372,0,22.976-4.846,24.519-5.577C79.5,285.911,79.936,284.455,79.84,283.452Zm-47.578,2.716a1.127,1.127,0,0,1-1.146,1.1H27.374a1.127,1.127,0,0,1-1.146-1.1V270.946a1.127,1.127,0,0,1,1.146-1.1h3.741a1.127,1.127,0,0,1,1.146,1.1v15.222Zm43.553-1.1c-1.477.7-13.538,5.338-23.453,5.338a18.118,18.118,0,0,1-7.512-1.341c-.039-.018.666.28-10.174-4.286V272.327A18.1,18.1,0,0,1,41.62,270.9a15.062,15.062,0,0,1,9.933,3.685c2.831,2.385,6.76,2.471,9.629,2.535a10.211,10.211,0,0,1,3.181.336,1.189,1.189,0,0,1-.434.968c-1.162,1.215-4.145,2.1-7.092,2.1a12.128,12.128,0,0,1-3.358-.438,9.616,9.616,0,0,0-2.66-.411c-1.715,0-2.462.623-2.786,1.145a2.019,2.019,0,0,0,.065,2.144c1.012,1.809,4.382,2.277,7.452,3.232a4.041,4.041,0,0,0,1.2.144c3.7,0,13.927-2.612,17.5-3.494.8-.057,1.348-.195,1.71-.195a1.265,1.265,0,0,1,.343.046c.479.129,1.094.605,1.13.976C77.463,283.945,77.055,284.48,75.815,285.067Z" transform="translate(-23.814 -237.73)" fill="#39a783"/>
</svg>
