<svg xmlns="http://www.w3.org/2000/svg" width="16.229" height="15.37" viewBox="0 0 16.229 15.37">
  <g id="Group_2041" data-name="Group 2041" transform="translate(-1.849 -2.708)">
    <path id="Path_1077" data-name="Path 1077" d="M6.466,11.8V4.866A.866.866,0,0,0,5.6,4H3.866A.866.866,0,0,0,3,4.866v6.065a.866.866,0,0,0,.866.866h2.6a3.466,3.466,0,0,1,3.466,3.466v.866a1.733,1.733,0,0,0,3.466,0V11.8H16a1.733,1.733,0,0,0,1.733-1.733l-.866-4.332C16.607,4.64,15.9,3.934,15.13,4H9.065a2.6,2.6,0,0,0-2.6,2.6" transform="translate(-0.401 -0.534)" fill="none" stroke="#fff" stroke-linecap="round" stroke-linejoin="round" stroke-width="1.5"/>
  </g>
</svg>
