<svg xmlns="http://www.w3.org/2000/svg" width="16.229" height="15.37" viewBox="0 0 16.229 15.37">
  <path id="Path_1077" data-name="Path 1077" d="M6.466,10.06v6.931a.866.866,0,0,1-.866.866H3.866A.866.866,0,0,1,3,16.991V10.926a.866.866,0,0,1,.866-.866h2.6A3.466,3.466,0,0,0,9.931,6.594V5.728a1.733,1.733,0,0,1,3.466,0V10.06H16a1.733,1.733,0,0,1,1.733,1.733l-.866,4.332c-.256,1.092-.962,1.8-1.733,1.733H9.065a2.6,2.6,0,0,1-2.6-2.6" transform="translate(-2.25 -3.245)" fill="none" stroke="#fff" stroke-linecap="round" stroke-linejoin="round" stroke-width="1.5"/>
</svg>
