<svg xmlns="http://www.w3.org/2000/svg" width="26" height="26" viewBox="0 0 26 26">
  <g id="Group_8276" data-name="Group 8276" transform="translate(-27 -341)">
    <path id="Path_1135" data-name="Path 1135" d="M0,0H26V26H0Z" transform="translate(27 341)" fill="none"/>
    <path id="Path_1136" data-name="Path 1136" d="M18.733,8.5V5.125A1.129,1.129,0,0,0,17.6,4H6.267a2.25,2.25,0,1,0,0,4.5h13.6A1.129,1.129,0,0,1,21,9.625V13m0,4.5v3.375A1.129,1.129,0,0,1,19.867,22H6.267A2.258,2.258,0,0,1,4,19.75V6.25" transform="translate(27 341)" fill="none" stroke="#1a1818" stroke-linecap="round" stroke-linejoin="round" stroke-width="1.2"/>
    <path id="Path_1137" data-name="Path 1137" d="M20,12v4H16a2,2,0,0,1,0-4h4" transform="translate(28.556 342.2)" fill="none" stroke="#1a1818" stroke-linecap="round" stroke-linejoin="round" stroke-width="1.2"/>
  </g>
</svg>
