<svg width="26" height="26" viewBox="0 0 26 26" fill="none" xmlns="http://www.w3.org/2000/svg">
<path d="M13 26C20.1797 26 26 20.1797 26 13C26 5.8203 20.1797 0 13 0C5.8203 0 0 5.8203 0 13C0 20.1797 5.8203 26 13 26Z" fill="#25D366"/>
<path d="M5.66602 20.336L6.77015 16.3042C5.91584 14.8199 5.57505 13.0952 5.80063 11.3975C6.0262 9.69977 6.80553 8.12389 8.01781 6.91414C9.23008 5.70439 10.8076 4.92834 12.5058 4.70631C14.2039 4.48428 15.9279 4.82866 17.4105 5.68606C18.893 6.54347 20.0513 7.86601 20.7058 9.44866C21.3603 11.0313 21.4744 12.7857 21.0304 14.4397C20.5864 16.0938 19.6092 17.5552 18.2502 18.5975C16.8912 19.6397 15.2263 20.2044 13.5137 20.2042C12.2131 20.2031 10.9335 19.8765 9.79135 19.2544L5.66602 20.336ZM9.98202 17.8452L10.2186 17.9856C11.2155 18.5764 12.3531 18.888 13.5119 18.8878C14.9461 18.8882 16.3397 18.4121 17.4738 17.5342C18.6078 16.6563 19.418 15.4265 19.7769 14.038C20.1359 12.6495 20.0232 11.1811 19.4567 9.86359C18.8902 8.54609 17.9019 7.45421 16.6472 6.75958C15.3925 6.06496 13.9425 5.80697 12.5253 6.02618C11.108 6.24539 9.80371 6.92937 8.8175 7.9706C7.83129 9.01182 7.21905 10.3513 7.07703 11.7783C6.935 13.2054 7.27124 14.6393 8.03288 15.8544L8.18628 16.0997L7.53282 18.4865L9.98028 17.8443L9.98202 17.8452ZM15.5356 16.1586C15.2804 16.16 15.0266 16.1214 14.7833 16.0442C14.4068 15.9274 14.0368 15.7905 13.6749 15.6343C12.3431 14.9781 11.2087 13.9812 10.3867 12.7448L10.3521 12.6963C9.89455 12.1201 9.61881 11.4208 9.55995 10.6874C9.55258 10.3936 9.60571 10.1014 9.71604 9.82901C9.82636 9.55662 9.99153 9.30982 10.2013 9.10397L10.2394 9.06324C10.3043 8.98862 10.3841 8.92841 10.4737 8.88647C10.5632 8.84452 10.6605 8.82178 10.7594 8.8197C10.8764 8.8197 11.0125 8.8197 11.1321 8.82664H11.1927C11.3132 8.82664 11.4423 8.85264 11.5706 9.1603C11.6209 9.28077 11.6919 9.45497 11.7691 9.64217C11.9424 10.0599 12.1348 10.5331 12.1686 10.5955C12.1993 10.6465 12.2168 10.7043 12.2197 10.7637C12.2225 10.8232 12.2107 10.8824 12.1851 10.9361L12.1582 10.9907C12.1157 11.0881 12.0593 11.1789 11.9909 11.2602C11.958 11.2992 11.9233 11.3408 11.8895 11.3824C11.8245 11.4622 11.7569 11.5436 11.6989 11.6017C11.6053 11.6953 11.4987 11.801 11.6122 11.9986C11.9031 12.5019 12.268 12.9585 12.6947 13.3532C13.1185 13.7345 13.6037 14.0413 14.1299 14.2606C14.1836 14.284 14.2261 14.3022 14.2581 14.3187C14.3229 14.3556 14.3953 14.3769 14.4696 14.3811C14.5107 14.3799 14.551 14.3693 14.5874 14.35C14.6238 14.3308 14.6552 14.3035 14.6793 14.2702C14.7755 14.1592 15.1629 13.706 15.2955 13.5075C15.3171 13.4648 15.3497 13.4286 15.3899 13.4027C15.4301 13.3768 15.4765 13.3621 15.5243 13.3602C15.5963 13.3651 15.6669 13.3821 15.7332 13.4104C15.9117 13.4754 16.8694 13.9469 17.0618 14.0431L17.1684 14.0951C17.2706 14.1289 17.3623 14.1886 17.4345 14.2684C17.488 14.5811 17.4489 14.9025 17.3218 15.1932C17.1792 15.4298 16.9888 15.6343 16.7629 15.7935C16.5371 15.9527 16.2805 16.0631 16.0097 16.1179C15.8529 16.1433 15.6944 16.1569 15.5356 16.1586Z" fill="#FDFDFD"/>
</svg>
