<svg id="Group_2116" data-name="Group 2116" xmlns="http://www.w3.org/2000/svg" width="24" height="24" viewBox="0 0 24 24">
  <path id="Path_1128" data-name="Path 1128" d="M0,0H24V24H0Z" fill="none"/>
  <path id="Path_1129" data-name="Path 1129" d="M3,21l1.65-3.8a9,9,0,1,1,3.4,2.9L3,21" fill="none" stroke="#42b28e" stroke-linecap="round" stroke-linejoin="round" stroke-width="1.5"/>
  <path id="Path_1130" data-name="Path 1130" d="M9,10a.5.5,0,0,0,1,0V9A.5.5,0,0,0,9,9v1a5,5,0,0,0,5,5h1a.5.5,0,0,0,0-1H14a.5.5,0,0,0,0,1" fill="none" stroke="#42b28e" stroke-linecap="round" stroke-linejoin="round" stroke-width="1.5"/>
</svg>
