<svg id="Group_8423" data-name="Group 8423" xmlns="http://www.w3.org/2000/svg" width="24" height="24" viewBox="0 0 24 24">
  <path id="Path_2191" data-name="Path 2191" d="M0,0H24V24H0Z" fill="none"/>
  <path id="Path_2192" data-name="Path 2192" d="M13,10l7.383,7.418a2.1,2.1,0,1,1-2.976,2.967L10,13" fill="none" stroke="#1a1818" stroke-linecap="round" stroke-linejoin="round" stroke-width="1.2"/>
  <path id="Path_2193" data-name="Path 2193" d="M6,9l4,4" fill="none" stroke="#1a1818" stroke-linecap="round" stroke-linejoin="round" stroke-width="1.2"/>
  <path id="Path_2194" data-name="Path 2194" d="M13,10,9,6" fill="none" stroke="#1a1818" stroke-linecap="round" stroke-linejoin="round" stroke-width="1.2"/>
  <path id="Path_2195" data-name="Path 2195" d="M3,21h7" fill="none" stroke="#1a1818" stroke-linecap="round" stroke-linejoin="round" stroke-width="1.2"/>
  <path id="Path_2196" data-name="Path 2196" d="M6.793,15.793,3.207,12.207a1,1,0,0,1,0-1.414L5.5,8.5,6,9,9,6l-.5-.5,2.293-2.293a1,1,0,0,1,1.414,0l3.586,3.586a1,1,0,0,1,0,1.414L13.5,10.5,13,10l-3,3,.5.5L8.207,15.793a1,1,0,0,1-1.414,0Z" fill="none" stroke="#1a1818" stroke-linecap="round" stroke-linejoin="round" stroke-width="1.2"/>
</svg>
